<svg width="40" height="40" viewBox="0 0 40 40" fill="none" xmlns="http://www.w3.org/2000/svg">
<g clip-path="url(#clip0_1_262)">
<path d="M19.9396 39.5487C30.7168 39.5487 39.4534 30.8121 39.4534 20.0349C39.4534 9.25772 30.7168 0.521088 19.9396 0.521088C9.16241 0.521088 0.425781 9.25772 0.425781 20.0349C0.425781 30.8121 9.16241 39.5487 19.9396 39.5487Z" fill="white"/>
<path d="M36.8083 9.15928C36.0501 7.98533 35.1574 6.87252 34.1302 5.85754C33.8368 5.56405 33.5433 5.28279 33.2375 5.01376C29.5812 1.77316 24.922 0 19.9939 0C14.65 0 9.6362 2.07888 5.85754 5.85754C2.07887 9.6362 0 14.6499 0 19.9939C0 25.3378 2.07887 30.3516 5.85754 34.1302C9.6362 37.9089 14.65 39.9878 19.9939 39.9878C25.3378 39.9878 30.3516 37.9089 34.1302 34.1302C37.9089 30.3516 39.9878 25.3256 39.9878 19.9939C39.9878 16.0929 38.8872 12.3632 36.8083 9.15928ZM33.262 33.2498C29.7157 36.7961 25.0076 38.7404 20.0061 38.7404C14.9924 38.7404 10.2843 36.7838 6.75023 33.2498C3.20391 29.7034 1.25955 24.9954 1.25955 19.9939C1.25955 14.9801 3.21614 10.2721 6.75023 6.738C10.2965 3.19169 15.0046 1.24733 20.0061 1.24733C25.0199 1.24733 29.7279 3.20392 33.262 6.738C33.3231 6.79915 33.3843 6.86029 33.4454 6.92143C34.2403 7.72853 34.9129 8.68236 35.402 9.67289C35.7689 10.3944 36.0501 11.0669 36.2091 11.8618C36.6371 13.5738 36.6983 15.4081 36.5271 17.3036C36.1847 21.229 34.3259 24.7875 31.3054 27.3066C28.2849 29.838 24.4574 31.0364 20.5319 30.694C14.1241 30.1314 9.36717 24.4451 9.92968 18.0373C10.3821 12.9746 14.8578 9.23265 19.9205 9.67289C21.8526 9.84409 23.5891 10.749 24.8364 12.2409C26.0715 13.7206 26.6707 15.6038 26.4995 17.5237C26.365 19.0278 25.6558 20.3974 24.494 21.3635C23.3323 22.3295 21.8649 22.7942 20.3607 22.6597C19.1868 22.5619 18.1351 21.9994 17.377 21.1067C16.6188 20.2018 16.2641 19.0645 16.3742 17.8905C16.4476 16.9856 16.8756 16.1785 17.5726 15.5915C18.2696 15.0046 19.1501 14.7355 20.0428 14.8089C20.7276 14.8701 21.3513 15.188 21.7915 15.7261C22.2317 16.2519 22.4396 16.9245 22.3907 17.6093C22.2929 18.6732 21.3513 19.4558 20.2874 19.3702C19.9327 19.3335 19.6148 19.6026 19.5781 19.9572C19.5414 20.3118 19.8105 20.6298 20.1651 20.6542C21.9382 20.8132 23.5157 19.4925 23.6747 17.7193C23.7603 16.6921 23.4546 15.6771 22.782 14.8823C22.1217 14.0874 21.1801 13.5983 20.1529 13.5127C18.9055 13.4026 17.6949 13.7817 16.7288 14.5888C15.7628 15.3959 15.1758 16.5209 15.0657 17.7683C14.9312 19.2846 15.3959 20.7643 16.3742 21.926C17.3525 23.0877 18.7221 23.8092 20.2385 23.9437C22.085 24.1027 23.8948 23.5402 25.3134 22.354C26.7441 21.1556 27.6124 19.4803 27.7836 17.6337C27.9792 15.3592 27.2944 13.1458 25.827 11.3971C24.3595 9.64843 22.3051 8.5723 20.0306 8.37665C14.2586 7.86304 9.14705 12.1431 8.63345 17.915C7.99756 25.0443 13.2926 31.3421 20.4097 31.978C24.6775 32.3571 28.8474 31.0486 32.137 28.2971C35.4265 25.5457 37.4442 21.6814 37.8233 17.4136C37.9211 16.3375 37.9211 15.2736 37.8478 14.2219C38.4347 16.0562 38.7404 18.0006 38.7404 19.9816C38.7527 24.9954 36.8083 29.7034 33.262 33.2498Z" fill="#066FDE"/>
<path d="M20.0056 39.9998C14.6617 39.9998 9.64792 37.9209 5.86926 34.1423C2.09059 30.3636 0.0117188 25.3498 0.0117188 20.0059C0.0117188 14.662 2.09059 9.64822 5.86926 5.86956C9.64792 2.0909 14.6617 0.0120239 20.0056 0.0120239C25.3495 0.0120239 30.3633 2.0909 34.142 5.86956C37.9206 9.64822 39.9873 14.662 39.9873 20.0059C39.9873 25.3498 37.9084 30.3636 34.1297 34.1423C30.3511 37.9209 25.3373 39.9998 20.0056 39.9998ZM20.0056 1.24712C14.9918 1.24712 10.2838 3.20371 6.74972 6.7378C3.2034 10.2841 1.25904 14.9922 1.25904 19.9937C1.25904 25.0074 3.21563 29.7155 6.74972 33.2496C10.296 36.7959 15.0041 38.7402 20.0056 38.7402C25.0194 38.7402 29.7274 36.7837 33.2615 33.2496C36.8078 29.7032 38.7522 24.9952 38.7522 19.9937C38.7522 14.9799 36.7956 10.2719 33.2615 6.7378C29.7152 3.20371 25.0071 1.24712 20.0056 1.24712Z" fill="#066FDE"/>
</g>
<defs>
<clipPath id="clip0_1_262">
<rect width="40" height="40" fill="white"/>
</clipPath>
</defs>
</svg>
