<svg width="14" height="14" viewBox="0 0 14 14" fill="none" xmlns="http://www.w3.org/2000/svg">
<g clip-path="url(#clip0_4_524)">
<path fill-rule="evenodd" clip-rule="evenodd" d="M12.7071 12.7071C12.3166 13.0976 11.6834 13.0976 11.2929 12.7071L6.29289 7.70711C5.90237 7.31658 5.90237 6.68342 6.29289 6.29289L11.2929 1.29289C11.6834 0.90237 12.3166 0.90237 12.7071 1.29289C13.0976 1.68342 13.0976 2.31658 12.7071 2.70711L8.41421 7L12.7071 11.2929C13.0976 11.6834 13.0976 12.3166 12.7071 12.7071Z" fill="#858DA5" stroke="#858DA5" stroke-linecap="round" stroke-linejoin="round"/>
<path fill-rule="evenodd" clip-rule="evenodd" d="M1.29289 12.7071C1.68342 13.0976 2.31658 13.0976 2.70711 12.7071L7.70711 7.70711C8.09763 7.31658 8.09763 6.68342 7.70711 6.29289L2.70711 1.29289C2.31658 0.90237 1.68342 0.90237 1.29289 1.29289C0.90237 1.68342 0.90237 2.31658 1.29289 2.70711L5.58579 7L1.29289 11.2929C0.90237 11.6834 0.90237 12.3166 1.29289 12.7071Z" fill="#858DA5" stroke="#858DA5" stroke-linecap="round" stroke-linejoin="round"/>
</g>
<defs>
<clipPath id="clip0_4_524">
<rect width="14" height="14" fill="white"/>
</clipPath>
</defs>
</svg>
