<svg width="40" height="40" viewBox="0 0 40 40" fill="none" xmlns="http://www.w3.org/2000/svg">
<g clip-path="url(#clip0_1_231)">
<path d="M19.5901 39.4789C30.3706 39.4789 39.1099 30.7396 39.1099 19.9591C39.1099 9.17861 30.3706 0.439301 19.5901 0.439301C8.80962 0.439301 0.0703125 9.17861 0.0703125 19.9591C0.0703125 30.7396 8.80962 39.4789 19.5901 39.4789Z" fill="white"/>
<path d="M20.6222 0.623962H19.3867V39.3763H20.6222V0.623962Z" fill="#066FDE"/>
<path d="M20.6231 30.7402H19.3877C19.3877 27.1561 17.0146 24.9421 15.0085 23.7188C12.5987 22.2387 9.39378 21.3457 6.44577 21.3457C4.195 21.3457 1.57727 21.9329 1.57727 23.5843H0.341797C0.341797 21.4314 2.67818 20.098 6.44577 20.098C9.6262 20.098 13.0635 21.0521 15.6568 22.6546C18.9106 24.6607 20.6231 27.4497 20.6231 30.7402Z" fill="#066FDE"/>
<path d="M20.6244 23.0459H19.389C19.389 20.685 18.5205 19.0459 16.6734 17.8716C14.9731 16.7951 12.6978 16.2569 10.496 15.7431C6.70395 14.8502 2.77734 13.9327 2.77734 10.0306H4.01282C4.01282 11.3517 4.59997 12.2691 5.89661 12.9908C7.15655 13.6881 8.91802 14.104 10.7773 14.5321C13.077 15.0703 15.4624 15.633 17.3339 16.8196C19.548 18.2263 20.6244 20.2569 20.6244 23.0459Z" fill="#066FDE"/>
<path d="M20.6233 39.3763H19.3879C19.3879 35.6943 17.394 33.3946 15.7304 32.1102C13.7732 30.6056 11.1187 29.676 8.79459 29.676C6.17685 29.676 5.24719 30.7769 5.24719 31.7922H4.01172C4.01172 30.7035 4.52548 29.8105 5.50407 29.2111C6.33588 28.6974 7.47349 28.4283 8.79459 28.4283C11.4123 28.4283 14.2869 29.4313 16.4888 31.1194C18.3726 32.5873 20.6233 35.1928 20.6233 39.3763Z" fill="#066FDE"/>
<path d="M20.6236 15.9753H19.3882C19.3882 13.5166 18.0915 12.5013 16.4524 11.2169C14.4096 9.61448 11.8652 7.62059 11.8652 2.14047H13.1007C13.1007 7.02121 15.1924 8.66035 17.2108 10.2383C18.8866 11.5594 20.6236 12.9172 20.6236 15.9753Z" fill="#066FDE"/>
<path d="M20.6222 30.7402H19.3867C19.3867 27.4497 21.0993 24.6607 24.3531 22.6546C26.9463 21.0521 30.3959 20.098 33.5641 20.098C37.3317 20.098 39.6681 21.4314 39.6681 23.5843H38.4326C38.4326 22.5445 37.1604 21.3457 33.5641 21.3457C30.6038 21.3457 27.4112 22.2265 25.0014 23.7188C23.0075 24.9421 20.6222 27.1561 20.6222 30.7402Z" fill="#066FDE"/>
<path d="M20.6222 23.0459H19.3867C19.3867 20.2691 20.4632 18.2263 22.6772 16.8196C24.5488 15.633 26.9341 15.0703 29.2338 14.5321C31.0931 14.0917 32.8424 13.6881 34.1145 12.9908C35.4234 12.2691 35.9983 11.3517 35.9983 10.0306H37.2338C37.2338 13.9327 33.3072 14.8502 29.5152 15.7431C27.3133 16.2569 25.0381 16.7951 23.3378 17.8716C21.4907 19.0459 20.6222 20.685 20.6222 23.0459Z" fill="#066FDE"/>
<path d="M20.6222 39.3763H19.3867C19.3867 35.1805 21.6375 32.575 23.5335 31.1194C25.7353 29.4313 28.61 28.4283 31.2277 28.4283C32.5488 28.4283 33.6864 28.6974 34.5182 29.2111C35.4968 29.8105 36.0106 30.7035 36.0106 31.7922H34.7751C34.7751 30.7646 33.8454 29.676 31.2277 29.676C28.9035 29.676 26.2491 30.6056 24.2919 32.1102C22.6161 33.3946 20.6222 35.6943 20.6222 39.3763Z" fill="#066FDE"/>
<path d="M20.6222 15.9753H19.3867C19.3867 12.9172 21.1237 11.5594 22.7996 10.2383C24.8179 8.64812 26.9097 7.02121 26.9097 2.14047H28.1451C28.1451 7.62059 25.6008 9.61448 23.558 11.2169C21.9188 12.5013 20.6222 13.5166 20.6222 15.9753Z" fill="#066FDE"/>
<path d="M20 40C14.6544 40 9.63914 37.9205 5.85932 34.1407C2.07951 30.3609 0 25.3456 0 20C0 14.6544 2.07951 9.63915 5.85932 5.85933C9.63914 2.07951 14.6544 0 20 0C25.3456 0 30.3609 2.07951 34.1407 5.85933C37.9205 9.63915 40 14.6544 40 20C40 25.3456 37.9205 30.3609 34.1407 34.1407C30.3731 37.9205 25.3456 40 20 40ZM20 1.24771C14.9847 1.24771 10.2752 3.2049 6.74006 6.74007C3.19266 10.2875 1.2477 14.9969 1.2477 20C1.2477 25.0153 3.20489 29.7248 6.74006 33.2599C10.2875 36.8073 14.9969 38.7523 20 38.7523C25.0153 38.7523 29.7248 36.7951 33.2599 33.2599C36.8073 29.7125 38.7523 25.0031 38.7523 20C38.7523 14.9847 36.7951 10.2752 33.2599 6.74007C29.7248 3.19267 25.0153 1.24771 20 1.24771Z" fill="#066FDE"/>
</g>
<defs>
<clipPath id="clip0_1_231">
<rect width="40" height="40" fill="white"/>
</clipPath>
</defs>
</svg>
