<svg width="40" height="40" viewBox="0 0 40 40" fill="none" xmlns="http://www.w3.org/2000/svg">
<g clip-path="url(#clip0_1_255)">
<path d="M19.9339 39.4789C30.7144 39.4789 39.4537 30.7396 39.4537 19.9591C39.4537 9.17861 30.7144 0.439301 19.9339 0.439301C9.15337 0.439301 0.414062 9.17861 0.414062 19.9591C0.414062 30.7396 9.15337 39.4789 19.9339 39.4789Z" fill="white"/>
<path d="M22.9126 39.8166C22.8759 39.8166 22.8392 39.8166 22.8148 39.8043C22.6191 39.7676 17.8362 38.997 13.1879 36.0001C10.4356 34.2264 8.31937 32.049 6.87594 29.5047C5.07778 26.3365 4.36829 22.6178 4.7475 18.471C4.77196 18.153 5.02885 17.9083 5.33466 17.8716C5.6527 17.8349 5.94628 18.0429 6.0319 18.3365C6.80255 20.9297 8.35606 23.0949 9.616 24.5383C9.39582 23.7432 9.18787 22.8013 9.05331 21.7982C8.50285 17.7004 9.44475 14.3365 11.7689 12.049C13.5548 10.2998 15.3408 9.22331 16.9188 8.26918C18.46 7.33952 19.671 6.60557 20.2949 5.59028C20.9555 4.51383 20.9188 3.11933 20.197 1.05205C20.0992 0.758476 20.2093 0.428198 20.4784 0.269177C20.7475 0.110155 21.09 0.159088 21.298 0.379272C23.7322 2.98478 24.564 5.68814 23.8545 8.66062C23.2307 11.2539 21.5671 13.7004 19.7934 16.3059C17.6894 19.4007 15.512 22.5933 15.0961 26.1407C14.8392 28.2936 15.5732 31.0215 17.0411 33.4557C18.6068 36.049 20.7964 37.8839 23.0472 38.4955C23.3408 38.5566 23.561 38.8258 23.561 39.1316C23.561 39.4863 23.2918 39.7677 22.9371 39.7921C22.9493 39.8166 22.9249 39.8166 22.9126 39.8166ZM5.99521 21.6637C6.12976 24.3181 6.81478 26.7401 8.02579 28.8686C9.35912 31.2172 11.3285 33.2478 13.9096 34.8992C15.3897 35.8533 16.8943 36.575 18.2399 37.101C17.3958 36.2692 16.6129 35.2784 15.9279 34.153C14.3132 31.4741 13.5181 28.4282 13.7995 26.0062C14.2521 22.1407 16.5273 18.8013 18.7169 15.5719C20.4172 13.0765 22.0197 10.7157 22.5824 8.36704C22.9738 6.72789 22.8148 5.19884 22.0808 3.71872C22.1298 6.67896 20.0625 7.92667 17.5915 9.40679C16.0747 10.3242 14.3499 11.3517 12.6863 12.9909C10.6435 14.997 9.86065 17.8839 10.3499 21.5903C10.7292 24.4282 11.7444 26.6912 11.7567 26.7157C11.879 26.997 11.8056 27.3273 11.561 27.5108C11.3163 27.6943 10.986 27.6943 10.7414 27.5108C10.6191 27.4129 7.879 25.1866 5.99521 21.6637Z" fill="#066FDE"/>
<path d="M24.2577 34.1285C20.8694 34.1285 19.1324 32.5383 18.2761 31.1927C17.6033 30.153 17.2119 28.8808 17.1629 27.5108C17.114 26.2631 17.3342 25.0154 17.8112 23.9878C18.3495 22.8135 19.377 21.5414 20.5635 20.0735C23.695 16.1958 27.5972 11.364 24.588 5.57806C24.4412 5.29672 24.5268 4.96644 24.7837 4.78296C25.0406 4.59947 25.3831 4.63617 25.5911 4.86858C29.4198 9.0276 30.6186 13.3456 30.9366 16.2325C31.3036 19.5352 30.7164 22.7401 29.3097 25.1866C30.8632 25.0765 32.2333 23.9634 33.1262 23.0215C34.1905 21.9083 34.8265 20.783 34.8265 20.7707C34.9733 20.5261 35.2669 20.4037 35.536 20.4771C35.8174 20.5628 36.0009 20.8196 35.9764 21.101C35.9764 21.2111 35.8174 23.9022 34.6064 26.8258C32.9794 30.7646 30.2149 33.2111 26.5941 33.8839C25.7746 34.0429 24.9917 34.1285 24.2577 34.1285ZM26.8021 8.45268C27.4993 13.4313 24.1109 17.627 21.5054 20.8563C20.3678 22.2631 19.3892 23.4741 18.9244 24.5016C18.2272 26.0307 18.0559 28.5628 19.3158 30.52C20.3067 32.0735 22.0192 32.8808 24.2577 32.8808C24.9183 32.8808 25.6278 32.8074 26.3739 32.6729C29.6033 32.0735 31.9886 29.945 33.4687 26.3609C33.8846 25.3456 34.1782 24.3426 34.3617 23.4863C33.1385 24.8686 31.2791 26.4221 29.0406 26.4221C28.7226 26.4221 28.4045 26.3854 28.0987 26.3242C27.8908 26.2875 27.7195 26.1408 27.6461 25.945C27.5727 25.7493 27.5972 25.5291 27.7195 25.3579C29.3709 23.0704 30.0926 19.7921 29.7012 16.3548C29.4565 14.2998 28.747 11.4374 26.8021 8.45268Z" fill="#066FDE"/>
<path d="M20 40C14.6544 40 9.63914 37.9205 5.85933 34.1407C2.07951 30.3609 0 25.3456 0 20C0 14.6544 2.07951 9.63915 5.85933 5.85933C9.63914 2.07951 14.6544 0 20 0C25.3456 0 30.3609 2.07951 34.1407 5.85933C37.9205 9.63915 39.9878 14.6667 39.9878 20C39.9878 25.3456 37.9083 30.3609 34.1284 34.1407C30.3609 37.9205 25.3333 40 20 40ZM20 1.24771C14.9847 1.24771 10.2752 3.2049 6.74006 6.74007C3.19266 10.2875 1.24771 14.9969 1.24771 20C1.24771 25.0153 3.20489 29.7248 6.74006 33.2599C10.2875 36.8073 14.9969 38.7523 20 38.7523C25.0153 38.7523 29.7248 36.7951 33.2599 33.2599C36.8073 29.7125 38.7523 25.0031 38.7523 20C38.7523 14.9847 36.7951 10.2752 33.2599 6.74007C29.7125 3.19267 25.0031 1.24771 20 1.24771Z" fill="#066FDE"/>
</g>
<defs>
<clipPath id="clip0_1_255">
<rect width="40" height="40" fill="white"/>
</clipPath>
</defs>
</svg>
