<svg width="200" height="200" viewBox="0 0 200 200" fill="none" xmlns="http://www.w3.org/2000/svg">
<g clip-path="url(#clip0_1_10)">
<path d="M8.4 92.45C8.14 96.66 4.77 100.121 0.58 100.331C0.24 100.361 0 100.621 0 100.961V101.431C0 101.771 0.26 102.041 0.58 102.061C4.74 102.271 8.08 105.671 8.4 109.861C8.43 110.201 8.72 110.491 9.08 110.491H9.45C9.79 110.491 10.08 110.231 10.13 109.881C10.52 106.171 14.29 102.351 17.97 102.081C18.29 102.051 18.52 101.791 18.52 101.501V100.951C18.52 100.631 18.28 100.401 17.99 100.371C14.28 100.031 10.38 96.231 10.12 92.521C10.1089 92.3737 10.0433 92.2358 9.93611 92.1341C9.8289 92.0324 9.68771 91.9743 9.54 91.971H9.01C8.64 91.891 8.38 92.131 8.38 92.441L8.4 92.45Z" fill="#DEE5F9" fill-opacity="0.45"/>
<path d="M153.83 0H153.33C153.03 0 152.77 0.23 152.77 0.53C152.52 4.09 148.78 7.73 145.23 8.06C145.093 8.07695 144.967 8.14306 144.875 8.24606C144.783 8.34906 144.731 8.48193 144.73 8.62V9.15C144.73 9.45 144.96 9.68 145.26 9.71C148.79 9.96 152.4 13.63 152.78 17.19C152.81 17.52 153.08 17.77 153.44 17.77H153.79C154.14 17.77 154.42 17.52 154.45 17.16C154.75 13.17 157.96 9.88 161.94 9.68C162.27 9.65 162.5 9.4 162.5 9.07V8.62C162.501 8.46652 162.443 8.31848 162.339 8.20542C162.236 8.09236 162.093 8.02258 161.94 8.01C157.93 7.81 154.7 4.5 154.45 0.46C154.4 0.23 154.15 0.01 153.84 0.01L153.83 0Z" fill="#DEE5F9" fill-opacity="0.3"/>
<path d="M185.65 64.52C185.26 70.3 180.51 75.03 174.58 75.31C174.11 75.34 173.74 75.72 173.74 76.15V76.79C173.74 77.25 174.11 77.63 174.58 77.63C180.48 77.91 185.2 82.59 185.65 88.32C185.68 88.8 186.1 89.19 186.62 89.19H187.14C187.64 89.19 188.03 88.83 188.08 88.35C188.63 83.26 193.96 78.01 199.2 77.66C199.65 77.63 199.99 77.28 199.99 76.85V76.09C199.99 75.68 199.68 75.33 199.23 75.28C193.96 74.82 188.48 69.6 188.08 64.49C188.063 64.28 187.967 64.0844 187.811 63.943C187.655 63.8017 187.451 63.7255 187.24 63.73H186.48C186.03 63.78 185.67 64.11 185.64 64.54L185.65 64.52Z" fill="#DEE5F9"/>
<path d="M42.1 67.67C42.1 63.36 45.62 59.85 49.94 59.85C54.26 59.85 57.78 63.36 57.78 67.67V105.09C57.78 106.45 58.88 107.55 60.25 107.55C61.62 107.55 62.72 106.45 62.72 105.09V42.97C62.72 38.66 66.24 35.15 70.56 35.15C74.88 35.15 78.4 38.66 78.4 42.97V105.07C78.4 106.43 79.5 107.53 80.87 107.53C82.24 107.53 83.34 106.43 83.34 105.07V32.84C83.34 28.53 86.86 25.02 91.18 25.02C95.5 25.02 99.02 28.53 99.02 32.84V105.09C99.02 106.45 100.12 107.55 101.49 107.55C102.86 107.55 103.96 106.45 103.96 105.09V42.99C103.96 38.68 107.48 35.17 111.8 35.17C116.12 35.17 119.64 38.68 119.64 42.99V100.76C119.64 100.91 119.67 101.07 119.69 101.22C119.66 101.73 119.64 102.25 119.64 102.73V129.51C119.64 130.87 120.74 131.97 122.11 131.97C123.48 131.97 124.58 130.87 124.58 129.51V102.7C124.58 97.14 126.66 91.5 129.9 88.32C131.93 86.32 134.32 85.35 136.99 85.4C138.22 85.43 140.25 85.78 140.25 87.89V123.29C140.25 123.55 140.3 123.78 140.38 124.01L140.25 124.04V148.27H145.21V87.9C145.21 83.59 141.87 80.54 137.09 80.47C133.08 80.39 129.43 81.91 126.45 84.83C125.78 85.47 125.17 86.19 124.6 86.96V42.99C124.6 35.97 118.87 30.23 111.8 30.23C108.84 30.23 106.12 31.23 103.96 32.92V32.84C103.96 25.82 98.23 20.08 91.16 20.08C84.09 20.08 78.36 25.8 78.36 32.84V32.92C76.1222 31.1696 73.361 30.2222 70.52 30.23C63.48 30.23 57.72 35.95 57.72 42.99V57.6C55.4822 55.8496 52.721 54.9022 49.88 54.91C42.84 54.91 37.08 60.63 37.08 67.67V148.26H42.12V67.67H42.1Z" fill="#9BABD9"/>
<path d="M91.12 195.01C65.08 195.01 43.74 174.26 42.36 148.27H37.45C38.83 177.04 62.37 200.01 91.12 200.01C119.87 200.01 143.41 177.04 144.79 148.27H139.86C138.51 174.29 117.17 195.01 91.12 195.01Z" fill="#DEE5F9"/>
<path d="M171.18 140.539H11.84C10.43 140.539 9.27002 141.699 9.27002 143.109V145.679C9.27002 147.099 10.43 148.249 11.84 148.249H171.18C172.59 148.249 173.75 147.089 173.75 145.679V143.109C173.75 141.689 172.59 140.539 171.18 140.539Z" fill="#6B7BAA"/>
</g>
<defs>
<clipPath id="clip0_1_10">
<rect width="200" height="200" fill="white"/>
</clipPath>
</defs>
</svg>
