<svg width="202" height="200" viewBox="0 0 202 200" fill="none" xmlns="http://www.w3.org/2000/svg">
<mask id="mask0_3_370" style="mask-type:luminance" maskUnits="userSpaceOnUse" x="1" y="0" width="200" height="200">
<path d="M1 0H201V200H1V0Z" fill="white"/>
</mask>
<g mask="url(#mask0_3_370)">
<path d="M201 0H1V144.5H201V0Z" fill="url(#paint0_linear_3_370)"/>
<path d="M45.6998 147C47.0998 176.4 71.1998 200 100.6 200C130 200 154.1 176.5 155.5 147H45.6998ZM155.9 144.5V85.2C155.9 80.8 152.5 77.7 147.6 77.6C143.5 77.5 139.8 79.1 136.7 82.1C136 82.8 135.4 83.5 134.8 84.3V39.3C134.8 32.1 128.9 26.2 121.7 26.2C118.7 26.2 115.9 27.2 113.7 29V28.9C113.7 21.7 107.8 15.8 100.6 15.8C93.3998 15.8 87.4998 21.7 87.4998 28.9V29C85.2998 27.3 82.4998 26.2 79.4998 26.2C72.2998 26.2 66.3998 32 66.3998 39.3V54.3C64.1998 52.6 61.3998 51.5 58.3998 51.5C51.1998 51.5 45.2998 57.3 45.2998 64.6V144.6H155.9V144.5ZM21.8998 89.9C21.5998 94.2 18.1998 97.7 13.8998 98C13.4998 98 13.2998 98.3 13.2998 98.7V99.2C13.2998 99.5 13.5998 99.8 13.8998 99.9C18.1998 100.1 21.5998 103.6 21.8998 107.9C21.8998 108.2 22.1998 108.6 22.5998 108.6H22.9998C23.3998 108.6 23.6998 108.3 23.6998 108C24.0998 104.2 27.9998 100.3 31.6998 100C31.9998 100 32.2998 99.7 32.2998 99.4V98.8C32.2998 98.5 32.0998 98.2 31.7998 98.2C27.9998 97.9 23.9998 94 23.6998 90.2C23.6998 89.9 23.3998 89.6 23.0998 89.6H22.5998C22.1998 89.3 21.8998 89.6 21.8998 89.9Z" fill="white"/>
<path d="M168.1 26.9C167.7 32.8 162.8 37.7 156.8 38C156.3 38 155.9 38.4 155.9 38.9V39.5C155.9 40 156.3 40.4 156.8 40.4C162.8 40.7 167.7 45.5 168.1 51.4C168.1 51.9 168.6 52.3 169.1 52.3H169.6C170.1 52.3 170.5 51.9 170.6 51.4C171.2 46.2 176.6 40.8 182 40.4C182.5 40.4 182.8 40 182.8 39.6V38.8C182.8 38.4 182.5 38 182 38C176.6 37.5 171 32.2 170.6 27C170.6 26.6 170.2 26.2 169.7 26.2H168.9C168.5 26.1 168.2 26.5 168.1 26.9ZM50.4004 64.5C50.4004 60.1 54.0004 56.5 58.4004 56.5C62.8004 56.5 66.4004 60.1 66.4004 64.5V102.8C66.4004 104.2 67.5004 105.3 68.9004 105.3C70.3004 105.3 71.4004 104.2 71.4004 102.8V39.2C71.4004 34.8 75.0004 31.2 79.4004 31.2C83.8004 31.2 87.4004 34.8 87.4004 39.2V102.8C87.4004 104.2 88.5004 105.3 89.9004 105.3C91.3004 105.3 92.4004 104.2 92.4004 102.8V28.9C92.4004 24.5 96.0004 20.9 100.4 20.9C104.8 20.9 108.4 24.5 108.4 28.9V102.9C108.4 104.3 109.5 105.4 110.9 105.4C112.3 105.4 113.4 104.3 113.4 102.9V39.3C113.4 34.9 117 31.3 121.4 31.3C125.8 31.3 129.4 34.9 129.4 39.3V98.4C129.4 98.6 129.4 98.7 129.5 98.9C129.5 99.4 129.4 100 129.4 100.5V127.9C129.4 129.3 130.5 130.4 131.9 130.4C133.3 130.4 134.4 129.3 134.4 127.9V100.5C134.4 94.8 136.5 89 139.8 85.8C141.9 83.7 144.3 82.8 147.1 82.8C148.4 82.8 150.4 83.2 150.4 85.4V121.6C150.4 121.9 150.5 122.1 150.5 122.3H150.4V147H155.5V85.2C155.5 80.8 152.1 77.7 147.2 77.6C143.1 77.5 139.4 79.1 136.3 82.1C135.6 82.8 135 83.5 134.4 84.3V39.3C134.4 32.1 128.5 26.2 121.3 26.2C118.3 26.2 115.5 27.2 113.3 29V28.9C113.3 21.7 107.4 15.8 100.2 15.8C93.0004 15.8 87.1004 21.7 87.1004 28.9V29C84.9004 27.3 82.1004 26.2 79.1004 26.2C71.9004 26.2 66.0004 32 66.0004 39.3V54.3C63.8004 52.6 61.0004 51.5 58.0004 51.5C50.8004 51.5 44.9004 57.3 44.9004 64.6V147H50.5004L50.4004 64.5ZM100.6 194.9C73.9004 194.9 52.1004 173.7 50.7004 147H45.7004C47.1004 176.4 71.2004 200 100.6 200C130 200 154.1 176.5 155.5 147H150.5C149.1 173.7 127.3 194.9 100.6 194.9Z" fill="#DEE5F8"/>
<path d="M201 144.5C201 143.1 199.6 142 197.9 142H4.1C2.4 142 1 143.1 1 144.5C1 145.9 2.4 147 4.1 147H198C199.6 147 201 145.9 201 144.5Z" fill="#6B7BAA"/>
<path d="M178.7 105.8H178.2C177.9 105.8 177.6 106 177.6 106.3C177.3 110 173.5 113.7 169.9 114C169.6 114 169.4 114.3 169.4 114.6V115.1C169.4 115.4 169.6 115.6 169.9 115.7C173.5 116 177.2 119.7 177.6 123.4C177.6 123.7 177.9 124 178.3 124H178.7C179.1 124 179.3 123.7 179.4 123.4C179.7 119.3 183 116 187.1 115.7C187.4 115.7 187.7 115.4 187.7 115.1V114.6C187.7 114.3 187.4 114 187.1 114C183 113.8 179.7 110.4 179.4 106.3C179.3 106 179 105.8 178.7 105.8Z" fill="white"/>
</g>
<defs>
<linearGradient id="paint0_linear_3_370" x1="101" y1="0" x2="101" y2="144.54" gradientUnits="userSpaceOnUse">
<stop offset="0.15" stop-color="white" stop-opacity="0"/>
<stop offset="1" stop-color="#DEE5F8"/>
</linearGradient>
</defs>
</svg>
