<svg width="144" height="238" viewBox="0 0 144 238" fill="none" xmlns="http://www.w3.org/2000/svg">
<path d="M122.498 149.999C122.498 150.662 122.761 151.298 123.23 151.767C123.699 152.236 124.335 152.499 124.998 152.499C125.661 152.499 126.297 152.236 126.765 151.767C127.234 151.298 127.498 150.662 127.498 149.999H122.498ZM100.723 130.786C100.723 131.449 100.986 132.085 101.455 132.554C101.924 133.023 102.56 133.286 103.223 133.286C103.886 133.286 104.522 133.023 104.99 132.554C105.459 132.085 105.723 131.449 105.723 130.786H100.723ZM127.498 149.999V92.359H122.498V150H127.498V149.999ZM127.498 92.359C127.498 89.736 127.204 87.079 125.717 85.095C124.084 82.918 121.534 82.174 118.593 82.174V87.174C120.776 87.174 121.429 87.711 121.717 88.095C122.151 88.674 122.498 89.859 122.498 92.359H127.498ZM118.593 82.174C115.35 82.174 110.926 83.728 107.314 86.978C103.61 90.313 100.723 95.461 100.723 102.606H105.723C105.723 96.943 107.959 93.125 110.659 90.695C113.452 88.182 116.713 87.174 118.593 87.174V82.174ZM100.723 102.606V130.786H105.723V102.606H100.723Z" fill="#DEE5F8"/>
<path d="M103.223 130.785V44.965C103.223 38.561 99.3795 33.437 92.9755 33.437C86.5705 33.437 82.7275 38.561 82.7275 43.685V106.448" stroke="#DEE5F8" stroke-width="5" stroke-linecap="round" stroke-linejoin="round"/>
<path d="M82.7284 106.449V34.719C82.7284 25.753 75.0434 23.191 72.4814 23.191C69.9204 23.191 62.2344 24.472 62.2344 33.438V106.449" stroke="#DEE5F8" stroke-width="5" stroke-linecap="round" stroke-linejoin="round"/>
<path d="M62.234 106.448V46.246C62.234 37.28 57.111 33.437 50.706 33.437C44.302 33.437 40.459 38.561 40.459 46.247V106.448" stroke="#DEE5F8" stroke-width="5" stroke-linecap="round" stroke-linejoin="round"/>
<path d="M40.4598 106.447V70.583C40.4598 64.178 36.6168 59.055 30.2128 59.055C23.8078 59.055 19.9658 64.178 19.9658 69.302V117.975" stroke="#DEE5F8" stroke-width="5" stroke-linecap="round" stroke-linejoin="round"/>
<path d="M72.1658 197.941C45.7698 197.941 23.9668 176.87 22.5608 150.523H17.5908C18.9868 179.682 43.0268 203.001 72.1658 203.001C101.306 203.001 126.04 179.147 127.436 149.998H122.436C121.059 176.375 98.5628 197.941 72.1658 197.941Z" fill="#DEE5F8"/>
<path d="M19.9648 151.28V117.977" stroke="#DEE5F8" stroke-width="5" stroke-linecap="round" stroke-linejoin="round"/>
</svg>
