<svg width="41" height="40" viewBox="0 0 41 40" fill="none" xmlns="http://www.w3.org/2000/svg">
<g clip-path="url(#clip0_1_245)">
<path d="M19.5901 39.5484C30.3706 39.5484 39.1099 30.8091 39.1099 20.0286C39.1099 9.2481 30.3706 0.508789 19.5901 0.508789C8.80962 0.508789 0.0703125 9.2481 0.0703125 20.0286C0.0703125 30.8091 8.80962 39.5484 19.5901 39.5484Z" fill="white"/>
<path d="M20.0008 7.37594C18.5696 7.37594 16.7347 6.50743 14.802 5.59C13.0772 4.77043 11.2913 3.9264 10.1414 3.9264C9.79892 3.9264 9.51758 3.64505 9.51758 3.30254C9.51758 2.96003 9.79892 2.67869 10.1414 2.67869C11.5726 2.67869 13.4075 3.54719 15.3402 4.46462C17.065 5.28419 18.8509 6.12823 20.0008 6.12823C20.906 6.12823 22.5451 5.16187 23.9885 4.31783C25.7255 3.30254 27.3647 2.33618 28.6001 2.33618C28.9427 2.33618 29.224 2.61753 29.224 2.96003C29.224 3.30254 28.9427 3.58389 28.6001 3.58389C27.6949 3.58389 26.0558 4.55025 24.6124 5.39429C22.8876 6.40958 21.2485 7.37594 20.0008 7.37594Z" fill="#066FDE"/>
<path d="M20 40C14.6544 40 9.63914 37.9205 5.85932 34.1407C2.07951 30.3609 0 25.3456 0 20C0 14.6544 2.07951 9.63914 5.85932 5.85933C9.63914 2.07951 14.6544 0 20 0C25.3456 0 30.3609 2.07951 34.1407 5.85933C37.9205 9.63914 40 14.6544 40 20C40 25.3456 37.9205 30.3609 34.1407 34.1407C30.3609 37.9205 25.3456 40 20 40ZM20 1.23547C14.9847 1.23547 10.2752 3.19266 6.74006 6.72783C3.19266 10.2752 1.2477 14.9847 1.2477 19.9878C1.2477 25.0031 3.20489 29.7125 6.74006 33.2477C10.2875 36.7951 14.9969 38.7401 20 38.7401C25.0153 38.7401 29.7248 36.7829 33.2599 33.2477C36.8073 29.7003 38.7523 24.9908 38.7523 19.9878C38.7523 14.9725 36.7951 10.263 33.2599 6.72783C29.7248 3.19266 25.0153 1.23547 20 1.23547Z" fill="#066FDE"/>
<path d="M39.3879 20.6848C37.8588 20.6848 35.8282 19.7185 33.6753 18.7032C31.7793 17.8102 29.8221 16.8806 28.6233 16.8806C27.7181 16.8806 26.079 17.8469 24.6356 18.691C22.8986 19.7062 21.2594 20.6726 20.0239 20.6726C18.5805 20.6726 16.6356 19.7185 14.5683 18.7154C12.7212 17.8102 10.8129 16.8806 9.6631 16.8806C8.66004 16.8806 6.83741 17.8958 5.21049 18.7888C3.44903 19.7674 1.77318 20.6848 0.635569 20.6848C0.293061 20.6848 0.0117188 20.4035 0.0117188 20.061C0.0117188 19.7185 0.293061 19.4371 0.635569 19.4371C1.45514 19.4371 3.13098 18.5075 4.6111 17.7001C6.53159 16.6481 8.342 15.6451 9.6631 15.6451C11.1065 15.6451 13.0515 16.5992 15.1188 17.6023C16.9658 18.5075 18.8741 19.4371 20.0239 19.4371C20.9291 19.4371 22.5683 18.4708 24.0117 17.6267C25.7487 16.6114 27.3879 15.6451 28.6233 15.6451C30.1035 15.6451 32.0973 16.587 34.2135 17.59C36.1463 18.5075 38.1524 19.4494 39.4001 19.4494C39.7426 19.4494 40.0239 19.7307 40.0239 20.0732C39.9995 20.4157 39.7304 20.6848 39.3879 20.6848Z" fill="#066FDE"/>
<path d="M38.1281 13.4801C36.5745 13.4801 34.7642 12.4648 33.0027 11.4862C31.4247 10.6055 29.7856 9.68807 28.6112 9.68807C27.706 9.68807 26.0669 10.6544 24.6235 11.4985C22.8865 12.5138 21.2473 13.4801 20.0119 13.4801C18.5684 13.4801 16.6235 12.526 14.5562 11.5229C12.7091 10.6177 10.8008 9.68807 9.651 9.68807C8.68464 9.68807 7.24121 10.6789 5.95681 11.5596C4.51338 12.5505 3.15558 13.4924 1.98127 13.4924C1.63876 13.4924 1.35742 13.211 1.35742 12.8685C1.35742 12.526 1.63876 12.2447 1.98127 12.2447C2.76415 12.2447 4.03632 11.3761 5.25957 10.5321C6.75192 9.50459 8.2932 8.44037 9.651 8.44037C11.0944 8.44037 13.0394 9.3945 15.1067 10.3976C16.9538 11.3028 18.862 12.2324 20.0119 12.2324C20.9171 12.2324 22.5562 11.2661 23.9996 10.422C25.7366 9.40673 27.3758 8.44037 28.6112 8.44037C30.1158 8.44037 31.8161 9.3945 33.6143 10.3976C35.229 11.3028 36.9048 12.2324 38.1281 12.2324C38.4706 12.2324 38.7519 12.5138 38.7519 12.8563C38.7519 13.211 38.4706 13.4801 38.1281 13.4801Z" fill="#066FDE"/>
<path d="M38.1281 27.8285C36.5745 27.8285 34.7642 26.8133 33.0027 25.8347C31.4247 24.9539 29.7856 24.0365 28.6112 24.0365C27.706 24.0365 26.0669 25.0029 24.6235 25.8469C22.8865 26.8622 21.2473 27.8285 20.0119 27.8285C18.5684 27.8285 16.6235 26.8744 14.5562 25.8714C12.7091 24.9662 10.8008 24.0365 9.651 24.0365C8.68464 24.0365 7.24121 25.0273 5.95681 25.9081C4.51338 26.8989 3.15558 27.8408 1.98127 27.8408C1.63876 27.8408 1.35742 27.5594 1.35742 27.2169C1.35742 26.8744 1.63876 26.5931 1.98127 26.5931C2.76415 26.5931 4.03632 25.7246 5.25957 24.8805C6.75192 23.853 8.2932 22.7888 9.651 22.7888C11.0944 22.7888 13.0394 23.7429 15.1067 24.746C16.9538 25.6512 18.862 26.5808 20.0119 26.5808C20.9171 26.5808 22.5562 25.6145 23.9996 24.7704C25.7366 23.7552 27.3758 22.7888 28.6112 22.7888C30.1158 22.7888 31.8161 23.7429 33.6143 24.746C35.229 25.6512 36.9048 26.5808 38.1281 26.5808C38.4706 26.5808 38.7519 26.8622 38.7519 27.2047C38.7519 27.5472 38.4706 27.8285 38.1281 27.8285Z" fill="#066FDE"/>
<path d="M20.0013 35.8043C18.5579 35.8043 16.613 34.8501 14.5457 33.8471C12.6986 32.9419 10.7903 32.0122 9.64048 32.0122C8.67412 32.0122 6.86372 33.003 5.89736 33.529C5.59155 33.688 5.22458 33.578 5.05332 33.2844C4.8943 32.9786 5.0044 32.6116 5.29797 32.4403C7.18176 31.4128 8.56402 30.7767 9.62824 30.7767C11.0717 30.7767 13.0166 31.7309 15.0839 32.7339C16.931 33.6391 18.8393 34.5688 19.9891 34.5688C20.8943 34.5688 22.5334 33.6024 23.9769 32.7584C25.7139 31.7431 27.353 30.7767 28.5885 30.7767C30.0686 30.7767 32.0625 31.7186 34.1787 32.7217L34.2154 32.7462C34.5212 32.8929 34.6558 33.2599 34.509 33.5657C34.3622 33.8715 33.9952 34.0061 33.6894 33.8593L33.6527 33.8348C31.7567 32.9419 29.7995 32.0122 28.6007 32.0122C27.6955 32.0122 26.0564 32.9786 24.613 33.8226C22.8882 34.8379 21.249 35.8043 20.0013 35.8043Z" fill="#066FDE"/>
</g>
<defs>
<clipPath id="clip0_1_245">
<rect width="41" height="40" fill="white"/>
</clipPath>
</defs>
</svg>
