<svg width="288" height="198" viewBox="0 0 288 198" fill="none" xmlns="http://www.w3.org/2000/svg">
<path d="M143.236 197.737C197.592 197.737 241.657 153.672 241.657 99.3158C241.657 44.9594 197.592 0.894745 143.236 0.894745C88.8791 0.894745 44.8145 44.9594 44.8145 99.3158C44.8145 153.672 88.8791 197.737 143.236 197.737Z" fill="url(#paint0_radial_1_111)"/>
<path d="M186.323 67.6105C186.107 64.6931 185.882 61.6819 185.994 60.3123C186.173 58.1547 185.141 55.0028 183.115 53.4737C181.679 52.3949 179.916 52.1979 178.03 52.9109C173.049 54.7964 172.88 58.9333 172.749 62.2635C172.739 62.5918 172.721 62.892 172.711 63.1922C172.646 64.4398 172.467 66.2878 172.289 68.2578C171.97 71.6818 171.604 75.5561 171.726 77.2165C171.82 78.511 171.182 80.7999 170.516 83.2295C169.935 85.3402 169.325 87.5165 169.015 89.5803C168.715 91.5597 168.612 94.1675 168.509 96.4658C168.434 98.2294 168.321 100.818 168.105 101.597C168.002 101.55 167.843 101.466 167.655 101.297C167.102 100.79 165.826 99.1393 166.004 94.7304C166.107 92.2351 166.661 88.9518 167.242 85.4715C168.04 80.7061 168.865 75.7718 168.724 71.9632C168.678 70.725 168.621 69.3647 168.565 68.0421C168.312 62.0196 168.03 55.1904 168.227 50.6501C168.424 46.2505 168.012 37.6859 167.768 32.564V32.5452C167.693 31.0537 167.636 29.8811 167.608 29.1212C167.561 27.7235 166.755 26.4477 165.357 25.5284C163.265 24.1588 160.122 23.8117 157.899 24.7029C154.306 26.1288 152.899 29.0087 152.711 35.2938C152.524 41.213 152.524 50.4625 152.711 55.0872C152.805 57.4043 152.327 60.8189 151.83 64.4305C151.379 67.695 150.901 71.072 150.863 73.7174C150.854 72.5261 150.845 71.3722 150.835 70.2934C150.835 69.5899 150.826 68.9145 150.817 68.2672C150.76 60.3592 150.46 57.3574 148.95 49.3931C147.515 41.7853 147.524 27.8173 147.852 22.3764C148.171 16.9825 148.077 12.7518 143.725 11.4009C139.4 10.0501 135.423 12.5454 134.588 14.8531C134.034 16.3821 132.984 20.2845 132.205 29.2056C131.492 37.4701 131.483 42.3763 131.708 48.5394C131.783 50.6501 131.755 52.8921 131.727 55.0497C131.661 59.7495 131.605 64.1959 132.599 67.3385C133.34 69.6743 134.109 74.5711 134.438 78.9613C134.832 84.1582 134.522 87.7229 133.622 88.4828C133.575 88.5203 133.518 88.5766 133.406 88.586L132.918 88.4546C132.693 88.2576 131.248 86.691 131.042 78.4922C130.845 70.6124 129.55 65.8657 128.303 61.2691C128.012 60.1997 127.712 59.1022 127.44 57.9952C126.567 54.4587 126.38 50.4719 126.201 46.607C126.089 44.2149 125.986 41.9635 125.732 39.7965C125.639 38.971 125.554 38.0986 125.46 37.1605C124.916 31.4852 124.297 25.05 120.001 24.6935C117.28 24.4684 115.338 24.8999 113.884 26.0631C112.14 27.4608 111.145 29.8904 110.836 33.5114C110.085 42.4701 110.085 48.2299 110.854 51.1285C111.286 52.7702 111.192 53.6895 111.061 54.9559C110.939 56.1191 110.789 57.5637 110.958 60.0309C111.277 64.5243 112.13 68.7081 112.543 70.7156V70.7343C112.609 71.0345 112.656 71.2784 112.693 71.4567C112.768 71.8319 112.937 73.436 113.162 75.4623C113.669 80.1339 114.513 87.9574 115.292 91.5878C115.958 94.6928 115.535 96.6534 114.841 99.9086C114.41 101.916 113.875 104.411 113.434 107.929C112.243 117.319 111.746 120.64 110.32 124.083C110.151 124.505 109.879 124.693 109.438 124.73C106.99 124.89 101.652 120.19 100.348 117.957C100.048 117.451 99.7852 116.878 99.4662 116.222C98.0779 113.286 96.1642 109.261 88.8003 104.299C79.926 98.3138 72.4496 96.5971 67.1963 99.327C64.7949 100.575 63.4909 101.916 63.2189 103.436C62.9844 104.73 63.5003 106.072 64.8042 107.545C65.3952 108.211 66.4177 109.167 67.6091 110.284C70.4702 112.967 74.3914 116.634 75.7047 119.383C76.943 121.972 79.3069 123.717 81.3895 125.255C82.6371 126.175 83.7065 126.963 84.2787 127.751C84.851 128.548 85.8266 129.505 86.8584 130.527C88.7252 132.366 91.0423 134.664 91.3331 136.39L91.3518 136.475C91.8678 139.505 92.9372 145.799 102.224 156.081C106.502 160.809 109.4 164.87 111.736 168.144C114.485 171.99 116.474 174.767 119.025 176.324C122.018 178.144 131.145 183.698 140.441 181.831C146.042 180.715 148.256 181.512 151.595 182.722C153.096 183.266 154.794 183.885 157.102 184.42C158.481 184.748 159.803 184.908 161.051 184.908C164.006 184.908 166.52 183.988 168.509 182.178C170.497 180.367 171.933 177.685 172.768 174.223C173.734 170.208 175.582 164.88 177.364 159.72C179.344 154.007 181.389 148.098 182.392 143.595C184.39 134.617 186.707 118.97 184.85 112.676C183.021 106.456 184.287 98.0793 185.507 94.2613C186.323 91.7191 186.37 86.0344 186.407 81.4753C186.426 78.9331 186.445 76.7474 186.595 75.9125C186.839 74.5711 186.585 71.194 186.323 67.6105ZM185.422 75.7155C185.385 75.9031 185.357 76.1377 185.338 76.4191L184.841 76.0063C183.64 75.0214 182.083 74.3835 180.319 74.1583C178.724 73.9613 177.036 74.0927 175.45 74.5617L173.518 75.1245L175.526 75.0214C178.48 74.8619 181.614 74.9182 184.587 76.3909L185.31 76.7474C185.244 77.8731 185.225 79.5241 185.216 81.4753C185.178 85.8374 185.141 91.2313 184.437 93.7079C183.762 93.8767 182.477 94.1957 180.995 94.5427C180.028 94.7679 179.015 94.7397 178.04 94.721C177.233 94.7022 176.398 94.6178 175.554 94.4771L175.469 94.9367C176.754 95.2088 178.077 95.3495 179.409 95.3495C180.976 95.3495 182.561 95.1619 184.118 94.7773C182.946 99.0361 181.933 106.991 183.706 113.023C183.706 113.042 183.715 113.051 183.715 113.07C182.42 111.888 180.948 111.128 179.794 110.659L179.606 111.09C180.976 111.747 182.814 112.901 184.062 114.702C185.113 121.588 183.04 135.208 181.22 143.342C180.225 147.779 178.19 153.66 176.22 159.345C174.344 164.767 172.571 169.88 171.586 173.96C170.657 177.816 168.95 180.583 166.52 182.169C164.09 183.754 161.013 184.129 157.364 183.266C155.132 182.741 153.462 182.14 151.989 181.606C149.682 180.771 147.862 180.114 145.094 180.114C143.668 180.114 142.064 180.292 140.188 180.668C138.969 180.912 137.74 181.024 136.53 181.024C129.016 181.024 122.121 176.831 119.625 175.311C117.28 173.885 115.357 171.193 112.693 167.46C110.339 164.167 107.412 160.077 103.097 155.293C94.0441 145.274 93.0122 139.205 92.5151 136.297L92.4963 136.212C92.1398 134.101 89.7665 131.766 87.6746 129.693C86.6802 128.708 85.7421 127.779 85.2262 127.066C84.5508 126.128 83.4063 125.284 82.0836 124.308C80.1137 122.854 77.8717 121.212 76.7647 118.886C75.3576 115.94 71.3426 112.179 68.4065 109.43C67.2432 108.342 66.2395 107.394 65.6766 106.766C64.6354 105.593 64.2039 104.58 64.3727 103.67C64.5791 102.554 65.7048 101.456 67.731 100.406C70.0669 99.1956 72.9561 98.9705 76.3144 99.7303C79.8416 100.537 83.8097 102.413 88.1155 105.302C95.2073 110.077 97.0272 113.933 98.3687 116.738C98.5 117.019 98.6407 117.301 98.772 117.573C96.2861 117.526 94.2036 120.49 93.4531 121.569C91.8584 123.839 90.2824 125.734 87.2149 125.931L87.2431 126.4C90.5545 126.278 92.3368 124.233 94.0254 121.972C95.3574 120.18 97.318 117.948 99.2974 118.539C99.2974 118.548 99.3067 118.548 99.3067 118.558C100.048 119.815 101.83 121.681 103.744 123.201C104.973 124.177 107.187 125.734 108.988 125.912C109.194 125.94 109.4 125.959 109.607 125.959C113.05 125.959 116.764 121.991 118.903 119.27L118.537 118.97C116.999 120.8 114.138 123.511 111.436 124.524C112.909 120.95 113.425 117.573 114.626 108.079C115.066 104.608 115.592 102.141 116.014 100.162C116.746 96.7566 117.186 94.7022 116.464 91.3439C115.695 87.7792 114.86 79.9932 114.353 75.3403V75.3215C114.232 74.224 114.128 73.2765 114.053 72.5636C114.701 72.9201 115.517 73.1452 116.511 73.2578C116.989 73.3141 117.487 73.3328 117.965 73.3328C118.913 73.3328 119.804 73.2484 120.479 73.1827L120.442 72.7137C118.997 72.7793 115.31 72.9482 113.913 71.4098C113.903 71.3347 113.894 71.2784 113.884 71.2315C113.847 71.0439 113.8 70.7906 113.734 70.4717C113.331 68.483 112.487 64.3554 112.168 59.9371C111.999 57.5731 112.149 56.1848 112.262 55.0684C112.393 53.8114 112.496 52.8077 112.111 51.166C112.393 51.091 112.684 50.9597 112.937 50.8377C113.153 50.7345 113.35 50.6501 113.49 50.6032C114.597 50.303 115.779 50.1717 116.896 50.0779L116.877 49.6088C116.708 49.6088 116.53 49.6088 116.342 49.6088C114.973 49.6088 113.19 49.6088 111.877 50.1811C111.295 47.2449 111.342 41.7946 112.036 33.5959C112.318 30.2188 113.228 28.0143 114.804 26.8511C115.601 26.2601 116.905 25.6128 119.916 25.8661C123.218 26.1381 123.781 32.048 124.278 37.2544C124.372 38.1831 124.457 39.0648 124.55 39.9091C124.804 42.0385 124.907 44.2712 125.019 46.6351C125.057 47.5263 125.104 48.4175 125.151 49.3086C124.213 48.9616 122.806 49.0647 121.004 49.6088L121.117 50.0591C121.924 49.8903 124.41 49.4494 125.207 50.2655C125.385 53.0047 125.667 55.7251 126.295 58.2485C126.577 59.3742 126.877 60.4812 127.168 61.5506C127.599 63.1265 128.031 64.7213 128.415 66.4661C125.976 66.0346 123.434 66.1659 121.004 66.8507L121.117 67.301C123.622 66.7288 126.201 66.7663 128.612 67.3948C128.659 67.6387 128.715 67.8826 128.762 68.1265C128.715 68.2203 128.669 68.3235 128.631 68.4079C128.565 68.5674 128.49 68.7362 128.397 68.8582C127.59 69.9088 126.201 70.5373 124.851 71.0908L125.01 71.5317C126.004 71.2128 127.946 70.5749 129.016 69.4961C129.447 72.0383 129.766 74.9369 129.86 78.4829C130.01 84.4584 130.817 87.2164 131.511 88.4734C127.571 88.4452 123.734 89.2145 120.367 90.7248L120.554 91.1563C123.359 90.0212 126.455 89.4021 129.644 89.327C127.787 90.1056 126.689 91.2876 126.352 92.8636L126.502 92.9011C126.389 93.0043 126.323 93.145 126.323 93.3045V94.008C126.201 93.6047 125.995 93.2576 125.695 92.9949C125.104 92.4696 124.278 92.357 123.472 92.6947C121.952 93.3232 121.933 94.6366 121.933 94.6928C121.933 94.993 122.177 95.2369 122.477 95.2369C122.777 95.2369 123.012 94.993 123.021 94.7022C123.021 94.6741 123.049 94.0362 123.894 93.6891C124.306 93.5202 124.71 93.5578 124.982 93.8017C125.385 94.1581 125.488 94.8711 125.254 95.6966C124.757 97.4508 122.59 99.6646 122.562 99.6928C122.412 99.8523 122.365 100.077 122.449 100.284C122.534 100.481 122.731 100.612 122.946 100.612H126.333V101.578C126.333 101.879 126.577 102.122 126.877 102.122C127.177 102.122 127.421 101.879 127.421 101.578V100.612H127.871C128.171 100.612 128.415 100.368 128.415 100.068C128.415 99.7678 128.171 99.5239 127.871 99.5239H127.421V93.2951C127.421 93.0043 127.186 92.7604 126.896 92.7604C127.365 91.4096 128.669 90.2651 130.226 89.8805C131.351 89.5991 132.243 89.5991 132.796 89.646C133.031 89.721 133.246 89.7586 133.443 89.7492L134.963 90.1807L134.053 89.6085C134.213 89.5334 134.344 89.4396 134.438 89.3646C134.85 89.0175 135.16 88.4077 135.376 87.6385C136.623 87.4509 138.143 87.3008 139.597 87.4884L139.682 87.0287C138.303 86.7098 136.83 86.7004 135.573 86.7567C135.742 85.828 135.826 84.7398 135.845 83.5954C136.67 83.0794 138.443 82.9763 139.156 83.0138C139.841 83.0513 140.535 83.1732 141.286 83.389L141.436 82.9481C139.644 82.2915 137.683 82.1507 135.854 82.5447C135.845 81.2127 135.76 79.8525 135.657 78.5861C135.273 73.8581 134.381 68.8582 133.772 66.9351C133.518 66.1284 133.34 65.2184 133.209 64.2335C135.029 64.937 136.877 65.2935 138.622 65.2935C138.959 65.2935 139.306 65.2841 139.635 65.256L139.607 64.7869C137.496 64.8338 135.244 64.2897 133.087 63.2297C132.871 60.7907 132.899 57.9577 132.946 55.0215C132.974 52.8452 133.002 50.5938 132.927 48.455C132.796 44.9841 132.749 41.926 132.852 38.427C134.006 39.0461 135.47 39.2149 136.717 39.2149C136.896 39.2149 137.074 39.2149 137.233 39.2056V38.7365C136.061 38.6802 134.025 38.4363 132.881 37.4326C132.974 35.0217 133.143 32.3857 133.415 29.2619C134.175 20.4815 135.188 16.6917 135.723 15.2189C136.389 13.3897 139.775 11.3728 143.378 12.4985C146.905 13.596 146.961 17.2358 146.661 22.2639C146.483 25.2188 146.398 30.669 146.586 36.2788C146.173 36.3726 145.667 36.5789 145.066 36.8322C144.747 36.9635 144.447 37.0949 144.278 37.1324C143.012 37.4607 141.764 37.5639 140.704 37.6202L140.713 38.0892C140.817 38.0892 140.91 38.0892 141.014 38.0892C142.824 38.0892 144.832 37.9579 146.623 37.2356C146.802 41.7384 147.158 46.2505 147.787 49.5713C148.772 54.7683 149.231 57.7701 149.447 61.4192C149.203 61.7288 148.772 62.1978 147.89 62.8733C146.961 63.5862 145.723 63.8207 144.522 64.0552H144.503L144.55 64.5243C145.676 64.5243 146.961 64.2335 148.002 63.755C148.612 63.4736 149.119 63.1265 149.513 62.7419C149.578 64.3367 149.616 66.1002 149.625 68.2391C149.625 68.7269 149.635 69.2334 149.635 69.7587V70.2653C149.663 74.0833 149.691 78.8299 149.822 82.6198C149.925 85.5747 150.066 87.3195 150.226 88.3796C148.8 87.5822 147.233 87.0663 145.676 86.8787L145.601 87.3383C147.364 87.676 149.062 88.5578 150.798 90.0306C150.817 90.0494 150.835 90.0587 150.854 90.0775L151.032 90.2276L151.06 90.1901C151.201 90.237 151.342 90.2464 151.492 90.2088C152.064 90.0587 152.317 89.3739 152.402 87.7698C152.486 86.222 152.402 83.6986 152.252 80.1339C152.177 78.3046 152.092 76.4191 152.074 74.8337C153.556 75.4622 155.226 75.7812 157.074 75.7812C158.743 75.7812 160.563 75.5279 162.514 75.012L162.402 74.5523C158.19 75.4904 154.719 75.2559 152.064 73.8581C152.083 71.269 152.561 67.8638 153.021 64.5524C153.528 60.8845 154.015 57.423 153.912 55.0028C153.865 53.8302 153.828 52.348 153.809 50.7064C155.301 51.4475 157.083 51.8133 159.203 51.8133C159.419 51.8133 159.644 51.8133 159.869 51.8039V51.3349C157.336 51.2599 155.338 50.7251 153.8 49.7026C153.753 45.0685 153.79 39.3744 153.922 35.2844C154.1 29.4871 155.263 27.0012 158.359 25.7629C160.254 25.0124 162.927 25.3126 164.719 26.4758C165.479 26.973 166.389 27.8267 166.426 29.1118C166.454 29.8904 166.511 31.0724 166.586 32.564C166.801 37.0292 167.139 44.1398 167.092 48.7552C166.801 48.8771 166.492 49.0741 166.201 49.2617C165.938 49.4306 165.685 49.5901 165.516 49.6557C164.681 49.9465 163.725 50.1154 162.589 50.1529V50.622C162.843 50.6313 163.096 50.6407 163.331 50.6407C164.935 50.6407 166.173 50.3968 167.064 49.909C167.055 50.1342 167.045 50.3499 167.045 50.5469C166.848 55.1341 167.13 61.9915 167.383 68.0421C167.439 69.346 167.496 70.6968 167.543 71.9538C167.552 72.1321 167.552 72.3009 167.552 72.4885C165.225 70.2653 160.732 70.3872 157.88 70.4623V70.9313H157.983C160.967 70.9595 165.891 71.0158 167.533 73.8581C167.411 77.2352 166.736 81.2783 166.07 85.2183C165.479 88.7361 164.925 92.0475 164.822 94.6178C164.775 95.8092 164.831 96.8223 164.944 97.6853C164.062 96.9724 162.89 96.297 161.436 95.6591L161.239 96.0812C162.355 96.6534 164.147 97.751 165.31 99.3832C165.76 100.865 166.398 101.672 166.801 102.057L165.601 101.897L167.664 102.629H167.674C167.89 102.713 168.105 102.76 168.302 102.76C169.137 102.967 170.732 103.492 172.355 104.712C173.49 105.575 174.447 106.616 175.375 107.62L175.732 107.31L175.601 107.151C173.996 105.227 171.848 102.648 169.259 101.879C169.315 101.691 169.353 101.485 169.391 101.25C169.541 100.331 169.625 98.8485 169.728 96.4283C169.803 94.6928 169.888 92.7792 170.047 91.1188C170.132 91.0812 170.216 91.025 170.291 90.9874C170.404 90.9218 170.526 90.8467 170.648 90.7998C171.858 90.3308 173.265 90.3402 174.222 90.3964C175.713 90.4809 177.186 90.828 178.462 91.1469L178.584 90.6966C176.464 90.0587 172.739 88.933 170.178 89.9931C170.197 89.8899 170.207 89.7867 170.225 89.6835C170.526 87.6948 171.117 85.5466 171.689 83.4734C172.421 80.8374 173.049 78.5579 172.946 77.0476C172.927 76.8318 172.927 76.5692 172.927 76.2784L173.565 76.7849C174.672 77.6574 176.135 78.2108 177.805 78.3703C178.152 78.4078 178.509 78.4172 178.865 78.4172C180.01 78.4172 181.201 78.2577 182.308 77.9388L184.006 77.4604L181.858 77.4885C179.043 77.526 176.379 77.5635 173.799 76.3909L172.927 75.997C172.965 74.1208 173.246 71.0533 173.509 68.2953C173.696 66.316 173.865 64.4586 173.94 63.1828C173.959 62.8826 173.968 62.5731 173.978 62.2354C174.1 59.1022 174.24 55.5562 178.49 53.9521C180 53.3799 181.323 53.5206 182.43 54.3461C184.128 55.6219 184.991 58.2954 184.841 60.1341C184.719 61.5975 184.944 64.5149 185.169 67.6199C185.375 71.0533 185.638 74.5148 185.422 75.7155ZM126.295 99.6084H124.119C124.869 98.7172 125.892 97.3382 126.248 96.0718C126.267 96.0155 126.276 95.9686 126.286 95.9123V99.6084H126.295ZM151.023 80.2371C151.107 82.132 151.211 84.646 151.211 86.5503C151.136 85.5653 151.06 84.2333 150.995 82.4322C150.929 80.3872 150.882 78.0795 150.854 75.7906C150.892 77.1883 150.957 78.7361 151.023 80.2371Z" fill="#066FDE"/>
<path d="M146.791 61.3723L148.883 62.0571L146.988 60.9502C143.79 59.074 139.09 59.7682 136.041 60.9314L136.163 61.3817C139.878 60.7532 143.48 60.2842 146.791 61.3723Z" fill="#066FDE"/>
<path d="M93.7536 110.959L93.3221 110.781C91.5866 114.092 87.8437 116.494 84.5417 118.604C84.0163 118.942 83.5191 119.261 83.0312 119.58L83.2565 119.993C86.5679 118.492 92.3277 115.321 93.7536 110.959Z" fill="#066FDE"/>
<path d="M138.02 158.914C137.992 159.054 138.03 159.195 138.105 159.308C138.189 159.42 138.302 159.495 138.443 159.523C138.471 159.533 138.499 159.533 138.536 159.533C138.79 159.533 139.005 159.345 139.052 159.101C140.047 153.435 140.084 147.797 139.156 142.338C138.414 137.966 137.064 133.707 135.131 129.674C131.839 122.788 127.955 118.876 127.917 118.839C127.711 118.633 127.383 118.633 127.176 118.839C126.97 119.045 126.97 119.374 127.176 119.58C127.214 119.618 130.994 123.426 134.193 130.143C137.148 136.343 140.216 146.362 138.02 158.914Z" fill="#066FDE"/>
<path d="M170.207 117.347C170.386 117.122 170.348 116.785 170.123 116.606C169.898 116.428 169.56 116.466 169.382 116.691C167.722 118.783 165.93 121.203 164.082 123.839C156.755 121.785 151.258 119.092 147.234 116.522C147.168 112.657 147.112 109.12 147.056 106.147C148.378 106.428 149.767 106.578 151.202 106.578C154.832 106.578 158.866 105.659 163.172 103.839C163.303 103.783 163.406 103.68 163.453 103.548C163.51 103.417 163.51 103.276 163.453 103.145C163.397 103.014 163.294 102.92 163.163 102.863C163.031 102.807 162.89 102.807 162.759 102.863C156.821 105.368 151.54 106.1 147.037 105.059C147.009 103.37 146.981 101.888 146.962 100.668L146.953 100.134C146.953 99.993 146.887 99.8523 146.784 99.7585C146.68 99.6647 146.549 99.6178 146.418 99.6178C146.127 99.6271 145.892 99.8616 145.902 100.152C145.902 100.199 145.93 101.916 145.977 104.787C145.339 104.59 144.72 104.364 144.11 104.102C137.637 101.241 135.33 94.9274 135.302 94.8617C135.208 94.5897 134.908 94.4396 134.626 94.5427C134.354 94.6366 134.204 94.9367 134.307 95.2088C134.335 95.2745 136.765 102 143.669 105.059C144.42 105.387 145.189 105.668 145.986 105.893C146.033 108.539 146.089 111.953 146.155 115.828C145.452 115.349 144.795 114.88 144.185 114.421C137.572 109.402 135.292 104.73 135.273 104.683C135.152 104.421 134.833 104.308 134.57 104.43C134.307 104.552 134.195 104.871 134.317 105.134C134.41 105.331 136.681 110.049 143.51 115.237C144.363 115.884 145.255 116.513 146.174 117.113C146.202 118.98 146.24 120.95 146.277 122.976C139.063 118.445 131.831 114.908 129.27 113.858C125.011 112.122 120.827 108.314 120.78 108.276C120.564 108.079 120.236 108.098 120.039 108.314C119.842 108.529 119.861 108.858 120.077 109.055C120.124 109.092 124.439 113.023 128.876 114.833C131.484 115.893 138.969 119.561 146.305 124.233C146.437 132.329 146.587 141.306 146.718 149.223C146.727 149.702 146.727 150.236 146.727 150.799C141.136 160.021 137.065 167.15 136.981 167.309C136.915 167.431 136.896 167.572 136.934 167.713C136.971 167.854 137.056 167.957 137.178 168.032C137.253 168.079 137.347 168.097 137.44 168.097C137.628 168.097 137.806 167.994 137.9 167.835C137.985 167.685 141.615 161.334 146.709 152.891C146.634 156.493 146.427 160.921 146.249 164.43C143.519 168.782 141.69 171.493 141.643 171.568C141.484 171.812 141.54 172.141 141.784 172.3C141.868 172.356 141.971 172.394 142.075 172.394C142.253 172.394 142.412 172.309 142.506 172.159C142.553 172.094 143.951 170.02 146.127 166.587C146.005 168.81 145.911 170.302 145.911 170.349C145.892 170.64 146.118 170.893 146.399 170.902C146.408 170.902 146.427 170.902 146.437 170.902C146.709 170.902 146.943 170.687 146.962 170.405C146.962 170.349 147.112 167.975 147.281 164.748C151.549 157.938 157.928 147.272 163.256 136.372C168.369 139.486 172.187 140.884 172.243 140.903C172.299 140.921 172.365 140.931 172.421 140.931C172.646 140.931 172.843 140.79 172.919 140.584C172.965 140.452 172.956 140.312 172.9 140.18C172.843 140.049 172.731 139.955 172.6 139.908C172.543 139.889 168.772 138.501 163.716 135.415C164.307 134.186 164.889 132.957 165.451 131.728C165.508 131.597 165.517 131.456 165.47 131.325C165.423 131.193 165.32 131.09 165.198 131.034C165.067 130.978 164.926 130.968 164.795 131.015C164.663 131.062 164.56 131.165 164.504 131.287C163.96 132.469 163.406 133.661 162.834 134.852C161.746 134.167 160.611 133.398 159.448 132.563C161.155 129.965 162.862 127.432 164.523 125.068C169.391 126.381 174.673 127.31 180.292 127.835C180.311 127.835 180.329 127.835 180.339 127.835C180.611 127.835 180.836 127.629 180.864 127.357C180.892 127.066 180.676 126.813 180.386 126.784C174.635 126.24 169.588 125.302 165.17 124.139C166.924 121.644 168.631 119.346 170.207 117.347ZM155.301 130.678C156.211 131.437 157.121 132.15 158.012 132.816C154.467 138.238 150.921 143.923 147.787 149.073C147.665 141.447 147.515 132.873 147.384 124.908C150.17 126.728 152.909 128.679 155.301 130.678ZM158.866 133.445C160.067 134.317 161.249 135.096 162.365 135.809C157.45 145.865 151.615 155.752 147.393 162.572C147.581 158.782 147.759 154.364 147.787 151.09C151.127 145.584 154.992 139.364 158.866 133.445ZM155.977 129.871C153.388 127.704 150.395 125.593 147.365 123.651C147.328 121.644 147.3 119.683 147.262 117.788C150.377 119.73 153.838 121.419 157.6 122.845C159.466 123.548 161.418 124.195 163.435 124.768C161.849 127.047 160.217 129.458 158.585 131.944C157.722 131.297 156.849 130.602 155.977 129.871Z" fill="#066FDE"/>
<path d="M162.889 163.66C162.655 163.642 162.43 163.773 162.345 163.998C162.261 164.223 162.326 164.467 162.505 164.617C163.311 165.264 163.771 166.24 163.771 167.272C163.771 169.157 162.242 170.687 160.357 170.687C160.263 170.687 160.178 170.687 160.084 170.677C159.85 170.658 159.625 170.79 159.54 171.015C159.456 171.24 159.522 171.484 159.7 171.634C160.497 172.281 161.501 172.628 162.523 172.628C165 172.628 167.017 170.612 167.017 168.135C167.017 167 166.595 165.912 165.816 165.077C165.056 164.251 164.015 163.745 162.889 163.66ZM164.859 167.272C164.859 166.568 164.7 165.893 164.4 165.283C165.347 165.902 165.947 166.972 165.947 168.144C165.947 170.03 164.418 171.559 162.533 171.559C162.317 171.559 162.111 171.54 161.904 171.503C163.659 170.855 164.859 169.195 164.859 167.272Z" fill="#066FDE"/>
<path d="M118.716 142.028C116.765 142.028 115.18 143.614 115.18 145.565C115.18 147.328 116.484 148.801 118.182 149.064V150.968H117.375C117.075 150.968 116.831 151.212 116.831 151.512C116.831 151.812 117.075 152.056 117.375 152.056H118.182V153.032C118.182 153.332 118.425 153.576 118.726 153.576C119.026 153.576 119.27 153.332 119.27 153.032V152.056H120.076C120.377 152.056 120.621 151.812 120.621 151.512C120.621 151.212 120.377 150.968 120.076 150.968H119.27V149.064C120.968 148.801 122.272 147.338 122.272 145.565C122.253 143.614 120.667 142.028 118.716 142.028ZM116.258 145.565C116.258 144.205 117.365 143.107 118.716 143.107C120.067 143.107 121.174 144.214 121.174 145.565C121.174 146.916 120.067 148.023 118.716 148.023C117.365 148.023 116.258 146.925 116.258 145.565Z" fill="#066FDE"/>
<path d="M156.877 101.485C159.138 101.485 160.976 99.6459 160.976 97.3851C160.976 95.1244 159.138 93.2857 156.877 93.2857C154.616 93.2857 152.777 95.1244 152.777 97.3851C152.777 99.6459 154.616 101.485 156.877 101.485ZM153.856 97.3851C153.856 95.7247 155.207 94.3645 156.877 94.3645C158.537 94.3645 159.897 95.7154 159.897 97.3851C159.897 99.0455 158.547 100.406 156.877 100.406C155.207 100.406 153.856 99.0455 153.856 97.3851Z" fill="#066FDE"/>
<path d="M156.877 98.7078C157.608 98.7078 158.2 98.1156 158.2 97.3851C158.2 96.6546 157.608 96.0624 156.877 96.0624C156.147 96.0624 155.555 96.6546 155.555 97.3851C155.555 98.1156 156.147 98.7078 156.877 98.7078Z" fill="#066FDE"/>
<path d="M174.24 115.612V117.516H173.433C173.133 117.516 172.889 117.76 172.889 118.06C172.889 118.361 173.133 118.604 173.433 118.604H174.24V119.58C174.24 119.88 174.484 120.124 174.784 120.124C175.084 120.124 175.328 119.88 175.328 119.58V118.604H176.135C176.435 118.604 176.679 118.361 176.679 118.06C176.679 117.76 176.435 117.516 176.135 117.516H175.328V115.612C177.026 115.349 178.33 113.886 178.33 112.113C178.33 111.409 178.124 110.762 177.767 110.209C178.049 109.768 178.199 109.102 177.664 108.361C177.58 108.248 177.458 108.164 177.317 108.145C177.176 108.126 177.036 108.154 176.914 108.239C176.801 108.323 176.717 108.445 176.698 108.586C176.679 108.727 176.707 108.867 176.792 108.989C176.876 109.111 176.923 109.214 176.932 109.299C176.341 108.839 175.591 108.576 174.784 108.576C173.959 108.576 173.199 108.858 172.598 109.336C172.608 109.242 172.645 109.139 172.739 108.999C172.824 108.886 172.861 108.736 172.833 108.595C172.814 108.454 172.73 108.333 172.617 108.248C172.505 108.164 172.355 108.126 172.214 108.154C172.073 108.173 171.951 108.257 171.867 108.37C171.323 109.12 171.492 109.805 171.782 110.237C171.435 110.781 171.238 111.428 171.238 112.113C171.238 113.886 172.542 115.359 174.24 115.612ZM174.775 109.655C175.478 109.655 176.107 109.955 176.557 110.424C176.576 110.462 176.595 110.499 176.623 110.528C176.66 110.575 176.698 110.612 176.745 110.65C177.054 111.062 177.233 111.569 177.233 112.122C177.233 113.483 176.126 114.58 174.775 114.58C173.424 114.58 172.317 113.473 172.317 112.122C172.317 110.772 173.424 109.655 174.775 109.655Z" fill="#066FDE"/>
<path d="M140.995 88.8393H141.164V97.0756C141.164 97.3758 141.408 97.6197 141.708 97.6197C142.009 97.6197 142.252 97.3758 142.252 97.0756V92.9293C142.553 92.6854 143.219 92.2163 143.875 92.2351C144.222 92.2445 144.504 92.3852 144.776 92.676C145.601 93.5672 145.264 94.1206 144.307 95.1713C143.932 95.584 143.613 95.9311 143.5 96.3439C143.228 97.3945 144.025 98.023 144.626 98.1919C144.673 98.2013 144.72 98.2106 144.767 98.2106C145.01 98.2106 145.226 98.0512 145.292 97.8166C145.367 97.5258 145.198 97.235 144.917 97.1506C144.917 97.1506 144.776 97.1037 144.663 97.0099C144.56 96.9255 144.504 96.8223 144.56 96.6159C144.598 96.4658 144.898 96.1375 145.114 95.8936C145.883 95.0587 147.159 93.6516 145.583 91.9349C145.114 91.4283 144.56 91.1657 143.922 91.1469C143.904 91.1469 143.885 91.1469 143.857 91.1469C143.266 91.1469 142.703 91.3721 142.271 91.616V88.8299H142.487C142.787 88.8299 143.031 88.586 143.031 88.2858C143.031 87.9856 142.787 87.7417 142.487 87.7417H141.024C140.723 87.7417 140.48 87.9856 140.48 88.2858C140.461 88.5953 140.705 88.8393 140.995 88.8393Z" fill="#066FDE"/>
<path d="M124.222 121.559C124.222 121.55 124.222 121.55 124.222 121.559C124.213 121.522 124.194 121.503 124.175 121.475C124.175 121.475 124.175 121.466 124.166 121.466C124.147 121.437 124.128 121.409 124.1 121.381C124.072 121.353 124.044 121.334 124.016 121.315C124.006 121.315 124.006 121.306 123.997 121.306C123.969 121.287 123.95 121.278 123.922 121.269H123.913C123.856 121.25 123.791 121.231 123.725 121.231H121.202C121.061 121.231 120.929 121.287 120.826 121.381C120.723 121.484 120.676 121.616 120.676 121.756C120.676 121.897 120.733 122.028 120.826 122.132C120.929 122.235 121.061 122.282 121.202 122.282H122.449L120.733 123.998C119.597 123.22 118.031 123.332 117.018 124.336C116.464 124.89 116.164 125.612 116.164 126.39C116.164 127.169 116.464 127.901 117.018 128.445C117.571 128.998 118.293 129.299 119.072 129.299C119.851 129.299 120.582 128.998 121.126 128.445C122.13 127.441 122.243 125.865 121.464 124.73L123.181 123.013V124.261C123.181 124.402 123.237 124.533 123.331 124.636C123.434 124.739 123.565 124.786 123.706 124.786C123.847 124.786 123.978 124.73 124.081 124.636C124.185 124.533 124.232 124.402 124.232 124.261V121.738C124.232 121.7 124.232 121.672 124.222 121.634C124.25 121.616 124.241 121.588 124.222 121.559ZM120.958 126.381C120.958 126.878 120.761 127.347 120.414 127.694C120.066 128.041 119.597 128.238 119.1 128.238C118.603 128.238 118.134 128.041 117.787 127.694C117.44 127.347 117.243 126.878 117.243 126.381C117.243 125.884 117.44 125.415 117.787 125.068C118.134 124.721 118.603 124.524 119.1 124.524C119.597 124.524 120.066 124.721 120.414 125.068C120.77 125.415 120.958 125.884 120.958 126.381Z" fill="#066FDE"/>
<path d="M117.046 41.41C117.271 41.41 117.459 41.2224 117.459 40.9973V40.8191C117.459 40.6596 117.459 40.472 117.459 40.275C117.496 37.3951 117.965 36.3257 118.35 35.9411C118.5 35.791 118.659 35.7253 118.847 35.7253C119.269 35.7253 119.56 35.8285 119.729 36.0349C120.001 36.3726 119.898 36.926 119.898 36.926C119.851 37.1512 119.991 37.3669 120.217 37.4138C120.442 37.4607 120.657 37.32 120.714 37.0949C120.723 37.0574 120.911 36.1662 120.385 35.5095C120.057 35.0968 119.541 34.8904 118.866 34.8904H118.856C118.444 34.8904 118.078 35.0405 117.768 35.3501C117.477 35.6409 117.243 36.0724 117.065 36.6446C116.886 36.0724 116.661 35.6315 116.37 35.3407C116.061 35.0311 115.695 34.8716 115.282 34.8716C115.273 34.8716 115.273 34.8716 115.263 34.8716C114.588 34.8716 114.082 35.078 113.753 35.4814C113.228 36.1287 113.406 37.0198 113.415 37.0574C113.462 37.2825 113.678 37.4232 113.903 37.3763C114.128 37.3294 114.269 37.1136 114.222 36.8885C114.222 36.8791 114.119 36.335 114.391 35.9973C114.56 35.791 114.86 35.6972 115.273 35.6972C115.47 35.6972 115.629 35.7722 115.77 35.9223C116.155 36.3163 116.614 37.3857 116.624 40.2656C116.624 40.472 116.624 40.6502 116.624 40.8191V40.9973C116.624 41.1099 116.661 41.213 116.746 41.2881C116.83 41.3631 116.933 41.41 117.046 41.41Z" fill="#066FDE"/>
<path d="M121.201 61.0159C121.201 60.3217 120.864 59.6744 120.31 59.2804C120.62 58.999 120.798 58.6425 120.939 58.3611V58.3517C120.958 58.3142 120.976 58.2673 120.995 58.2298C121.276 57.6763 121.764 57.7514 121.821 57.7607C121.924 57.7889 122.036 57.7701 122.13 57.7045C122.224 57.6482 122.29 57.5544 122.318 57.4418C122.346 57.3292 122.327 57.226 122.261 57.1322C122.205 57.0384 122.111 56.9728 121.999 56.954C121.605 56.8696 120.723 56.9352 120.263 57.8545C120.245 57.9015 120.216 57.9484 120.198 57.9953C119.973 58.4549 119.757 58.8958 119.11 58.8864C118.462 58.8864 118.246 58.4455 118.021 57.9859L118.012 57.9765C117.993 57.9296 117.965 57.8921 117.946 57.8452C117.487 56.9258 116.614 56.8414 116.211 56.9258C116.098 56.9446 116.014 57.0103 115.948 57.1041C115.892 57.1979 115.864 57.3105 115.892 57.4136C115.939 57.6388 116.164 57.7795 116.38 57.7326C116.436 57.7232 116.924 57.6482 117.196 58.211C117.215 58.2485 117.233 58.2954 117.261 58.3423C117.393 58.6238 117.571 58.9802 117.881 59.2617C117.327 59.6463 116.98 60.2935 116.971 60.9877C116.961 62.1509 117.909 63.1078 119.072 63.1078H119.081C119.644 63.1078 120.17 62.892 120.564 62.498C120.976 62.104 121.192 61.5787 121.201 61.0159ZM119.091 62.2917C119.081 62.2917 119.081 62.2917 119.091 62.2917C118.378 62.2917 117.806 61.71 117.806 61.0065C117.806 60.6688 117.946 60.3404 118.19 60.0965C118.434 59.8526 118.753 59.7213 119.091 59.7213C119.091 59.7213 119.091 59.7213 119.1 59.7213C119.438 59.7213 119.766 59.862 120.01 60.1059C120.254 60.3498 120.385 60.6688 120.385 61.0159C120.367 61.7194 119.794 62.2917 119.091 62.2917Z" fill="#066FDE"/>
<path d="M119.025 84.4865C119.118 84.5522 119.222 84.571 119.334 84.5522C119.719 84.4772 120.15 84.4303 120.601 84.3927C120.638 84.4021 120.666 84.4021 120.704 84.4021C120.76 84.4021 120.816 84.3927 120.863 84.374C121.454 84.3458 122.073 84.3458 122.664 84.3834C122.711 84.4021 122.758 84.4115 122.805 84.4115C122.833 84.4115 122.861 84.4115 122.889 84.4021C123.349 84.4396 123.781 84.5053 124.175 84.5804C124.203 84.5897 124.231 84.5897 124.259 84.5897C124.456 84.5897 124.625 84.449 124.662 84.2614C124.709 84.0363 124.559 83.8205 124.343 83.7736C123.996 83.6986 123.621 83.6423 123.227 83.6048L123.246 79.0551C123.64 79.0176 124.015 78.9707 124.362 78.905C124.475 78.8862 124.569 78.8206 124.625 78.7361C124.681 78.6517 124.709 78.5391 124.691 78.4266C124.653 78.2014 124.428 78.0513 124.203 78.0982C122.721 78.3797 120.816 78.3609 119.353 78.0607C119.128 78.0138 118.912 78.1639 118.865 78.389C118.818 78.6142 118.968 78.8299 119.184 78.8768C119.531 78.9519 119.906 79.0082 120.3 79.0457L120.282 83.5954C119.888 83.6329 119.512 83.6798 119.165 83.7455C119.053 83.7642 118.959 83.8299 118.903 83.9143C118.837 84.0081 118.818 84.1113 118.837 84.2239C118.874 84.3271 118.94 84.4209 119.025 84.4865ZM121.126 83.5297L121.145 79.0926C121.37 79.102 121.595 79.1114 121.82 79.1114C122.017 79.1114 122.214 79.1114 122.42 79.102L122.402 83.5391C122.148 83.5297 121.904 83.5203 121.651 83.5203C121.482 83.5203 121.304 83.5203 121.126 83.5297Z" fill="#066FDE"/>
<path d="M163.631 39.7872C163.828 39.5245 163.94 39.2055 163.94 38.8772C163.94 38.4645 163.781 38.0799 163.499 37.7891C163.208 37.4982 162.824 37.3388 162.42 37.3388C162.008 37.3388 161.623 37.4982 161.332 37.7797C161.041 38.0705 160.882 38.4551 160.882 38.8585C160.882 39.4213 161.173 39.9091 161.623 40.1811C160.76 40.4907 159.147 40.8284 157.158 40.1342C157.055 40.0967 156.942 40.1061 156.839 40.153C156.736 40.1999 156.661 40.2843 156.633 40.3875C156.595 40.4907 156.604 40.6033 156.651 40.7065C156.698 40.8097 156.783 40.8847 156.886 40.9129C157.721 41.2037 158.584 41.3537 159.466 41.3537C159.475 41.3537 159.494 41.3537 159.503 41.3537C161.548 41.3725 163.199 40.5751 163.631 39.7872ZM162.411 39.5808C162.017 39.5808 161.708 39.2618 161.708 38.8678C161.708 38.4832 162.026 38.1643 162.411 38.1643C162.599 38.1643 162.777 38.2393 162.908 38.3707C163.04 38.502 163.115 38.6802 163.115 38.8678C163.115 39.0555 163.04 39.2337 162.908 39.365C162.768 39.5057 162.599 39.5808 162.411 39.5808Z" fill="#066FDE"/>
<path d="M157.834 39.6746C157.843 39.6746 157.843 39.6746 157.834 39.6746C158.247 39.6746 158.631 39.5151 158.922 39.2337C159.213 38.9429 159.372 38.5583 159.372 38.1549C159.372 37.5921 159.081 37.1043 158.631 36.8322C159.494 36.5227 161.108 36.185 163.096 36.8791C163.2 36.9167 163.312 36.9073 163.415 36.8604C163.519 36.8135 163.594 36.729 163.622 36.6259C163.659 36.5227 163.65 36.4101 163.603 36.3069C163.556 36.2037 163.472 36.1287 163.368 36.1005C160.16 34.9936 157.186 36.2037 156.614 37.2356C156.417 37.4983 156.305 37.8172 156.305 38.1455C156.305 38.5583 156.464 38.9429 156.746 39.2337C157.046 39.5058 157.43 39.6746 157.834 39.6746ZM157.843 37.4326C158.237 37.4326 158.547 37.7515 158.547 38.1455C158.547 38.5302 158.228 38.8491 157.843 38.8491C157.459 38.8491 157.14 38.5302 157.14 38.1362C157.14 37.7515 157.459 37.4326 157.843 37.4326Z" fill="#066FDE"/>
<path d="M159.391 63.9614C159.804 63.9614 160.188 63.8019 160.479 63.5205C160.77 63.2297 160.929 62.8451 160.929 62.4417C160.929 62.4136 160.929 62.3761 160.929 62.3479C160.92 61.9539 160.77 61.5599 160.592 61.1003C160.348 60.4718 160.066 59.7588 160.132 58.8864C160.179 58.2767 160.789 57.9108 161.323 57.9389C162.055 57.9859 162.139 58.6707 162.111 59.074C162.055 60.1997 161.755 61.044 161.492 61.7851C161.239 62.4886 161.023 63.089 161.079 63.7457C161.145 64.5149 161.755 64.9182 162.327 64.9182H162.336C162.355 64.9182 162.365 64.9182 162.383 64.9182C163.218 64.8807 163.603 64.1584 163.603 63.4924C163.603 63.2672 163.415 63.0796 163.19 63.0796C162.965 63.0796 162.777 63.2672 162.777 63.4924C162.777 64.0271 162.449 64.0834 162.355 64.0927C162.158 64.1021 161.933 63.9708 161.905 63.68C161.867 63.2016 162.046 62.7044 162.271 62.0665C162.543 61.3066 162.881 60.3686 162.937 59.1115C162.984 58.1641 162.515 57.1791 161.37 57.1041C160.432 57.0384 159.382 57.7138 159.297 58.8114C159.231 59.6369 159.428 60.3404 159.635 60.9127C159.56 60.9033 159.485 60.8939 159.41 60.8939C159.41 60.8939 159.41 60.8939 159.4 60.8939C158.997 60.8939 158.612 61.0534 158.321 61.3348C158.031 61.6256 157.871 62.0102 157.871 62.4136C157.862 63.2672 158.547 63.952 159.391 63.9614ZM159.391 61.7288C159.4 61.7288 159.4 61.7288 159.391 61.7288C159.578 61.7288 159.757 61.8038 159.888 61.9352C160.019 62.0665 160.094 62.2447 160.094 62.4323C160.094 62.62 160.019 62.7982 159.888 62.9295C159.757 63.0609 159.578 63.1359 159.391 63.1359C159.006 63.1359 158.687 62.817 158.697 62.4323C158.697 62.0383 159.006 61.7288 159.391 61.7288Z" fill="#066FDE"/>
<path d="M156.398 82.5823V82.6104C156.398 82.6198 156.398 82.6292 156.398 82.6385L156.379 86.7755C156.379 87.0006 156.567 87.1882 156.792 87.1882C156.904 87.1882 157.008 87.1413 157.083 87.0663C157.158 86.9912 157.205 86.888 157.205 86.7755L157.223 82.6667C157.298 82.5447 157.486 82.2539 157.824 82.0757C157.889 82.1977 157.946 82.3665 157.955 82.5823C157.955 82.5916 157.955 82.601 157.955 82.6104C157.955 82.6198 157.955 82.6385 157.955 82.6479L157.936 86.7848C157.936 87.0006 158.096 87.1788 158.302 87.1976C158.302 87.2164 158.312 87.2445 158.321 87.2633C158.377 87.4415 158.537 87.5541 158.715 87.5541C158.753 87.5541 158.799 87.5447 158.837 87.5353C159.09 87.4603 159.325 87.3665 159.54 87.2539C159.597 87.4884 159.7 87.6666 159.859 87.7886C160 87.9012 160.178 87.9574 160.366 87.9574C160.46 87.9574 160.554 87.9481 160.657 87.9199C160.76 87.8918 160.854 87.8261 160.91 87.7323C160.966 87.6385 160.985 87.5259 160.957 87.4227C160.929 87.3196 160.863 87.2257 160.769 87.1695C160.676 87.1132 160.563 87.0944 160.46 87.1226C160.413 87.1319 160.385 87.1319 160.366 87.1319C160.347 87.1038 160.319 87.0194 160.319 86.8599V86.7098C161.426 85.6873 161.557 84.2427 161.557 83.6611C161.557 82.8731 161.107 82.4322 161.051 82.3853C160.948 82.2915 160.798 82.2539 160.657 82.2915C160.535 82.329 160.422 82.3665 160.319 82.4134C160.244 81.7098 159.841 81.3252 159.784 81.2783C159.681 81.1845 159.531 81.147 159.39 81.1845C159.015 81.2971 158.734 81.4847 158.527 81.6723C158.396 81.4284 158.246 81.2877 158.227 81.269C158.124 81.1751 157.974 81.1376 157.833 81.1751C157.458 81.2877 157.177 81.4753 156.97 81.6629C156.839 81.419 156.689 81.2783 156.67 81.2596C156.501 81.1095 156.238 81.1189 156.088 81.2877C155.938 81.4566 155.948 81.7192 156.117 81.8693C156.135 81.8881 156.389 82.132 156.398 82.5823ZM160.338 85.3684L160.347 83.4734C160.366 83.4172 160.441 83.2952 160.638 83.192C160.694 83.3046 160.741 83.4547 160.741 83.6611C160.741 84.0644 160.676 84.7398 160.338 85.3684ZM159.39 82.0851C159.456 82.2164 159.531 82.404 159.522 82.6573L159.503 86.3158C159.287 86.4659 159.043 86.5972 158.771 86.691L158.79 82.6761C158.865 82.5541 159.053 82.2727 159.39 82.0851Z" fill="#066FDE"/>
<path d="M182.598 65.059L176.829 65.0308C176.716 65.0308 176.613 65.0777 176.538 65.1528C176.463 65.2278 176.416 65.331 176.416 65.4436C176.416 65.6687 176.604 65.8563 176.829 65.8563L182.598 65.8845C182.823 65.8845 183.011 65.6969 183.011 65.4717C183.011 65.2466 182.823 65.059 182.598 65.059Z" fill="#066FDE"/>
<path d="M182.598 63.7926L181.557 63.7832C181.679 63.5299 181.735 63.2485 181.735 62.9577C181.745 61.8414 180.835 60.9314 179.728 60.9314H179.718C178.611 60.9314 177.702 61.832 177.702 62.9389C177.702 63.2297 177.758 63.5111 177.88 63.7738H176.839C176.726 63.7738 176.623 63.8207 176.548 63.8958C176.473 63.9708 176.426 64.074 176.426 64.1866C176.426 64.2991 176.463 64.4023 176.548 64.4774C176.623 64.5524 176.726 64.5993 176.839 64.5993L178.715 64.6087C178.893 64.6087 179.043 64.4961 179.109 64.3366C179.165 64.1678 179.118 63.9896 178.977 63.877C178.696 63.6519 178.536 63.3141 178.546 62.9483C178.546 62.2916 179.081 61.7569 179.737 61.7663C180.394 61.7663 180.929 62.301 180.919 62.9577C180.919 63.3141 180.76 63.6519 180.478 63.877C180.347 63.9896 180.291 64.1678 180.347 64.3366C180.403 64.5055 180.563 64.6087 180.732 64.6181L182.608 64.6275C182.72 64.6275 182.823 64.5805 182.899 64.5055C182.974 64.4305 183.02 64.3273 183.02 64.2147C183.011 63.9802 182.833 63.7926 182.598 63.7926Z" fill="#066FDE"/>
<path d="M180.751 87.9574L180.113 88.1263C180.029 88.1451 179.954 88.2014 179.898 88.267C179.851 88.192 179.822 88.0982 179.822 87.9856L179.841 84.0457C179.841 83.2295 179.372 82.7793 179.325 82.723C179.222 82.6292 179.072 82.5916 178.931 82.6292C178.64 82.7136 178.368 82.8637 178.134 83.0701C178.012 82.8543 177.881 82.7324 177.862 82.7136C177.759 82.6198 177.609 82.5823 177.468 82.6198C177.177 82.7042 176.905 82.8543 176.671 83.0607C176.549 82.8449 176.417 82.723 176.398 82.7042C176.23 82.5541 175.967 82.5635 175.817 82.7324C175.667 82.9012 175.676 83.1639 175.845 83.314C175.854 83.3233 176.08 83.5485 176.098 83.9612V83.9894C176.098 83.9988 176.098 84.0081 176.098 84.0175L176.08 87.9012C176.08 88.1263 176.267 88.3139 176.492 88.3139C176.717 88.3139 176.905 88.1263 176.905 87.9012L176.924 84.0457C176.989 83.9331 177.158 83.6798 177.449 83.511C177.505 83.6142 177.552 83.7642 177.562 83.9519C177.562 83.9612 177.562 83.9706 177.562 83.9706V83.98C177.562 83.9894 177.562 83.9988 177.562 84.0081L177.543 87.8918C177.543 88.1169 177.731 88.3045 177.956 88.3045C178.068 88.3045 178.171 88.2576 178.247 88.1826C178.322 88.1075 178.368 88.0044 178.368 87.8918L178.387 84.0363C178.453 83.9237 178.622 83.6704 178.913 83.5016C178.969 83.6235 179.025 83.783 179.025 83.9988L179.006 87.9387C179.006 88.4828 179.307 88.9518 179.776 89.1207C179.898 89.1676 180.019 89.1863 180.141 89.1863C180.207 89.1863 180.282 89.177 180.348 89.1676C180.404 89.2614 180.489 89.327 180.592 89.3552C180.629 89.3646 180.667 89.3739 180.695 89.3739C180.883 89.3739 181.042 89.252 181.098 89.0644L181.276 88.4265C181.314 88.2858 181.276 88.1263 181.173 88.0231C181.042 87.9668 180.892 87.9199 180.751 87.9574Z" fill="#066FDE"/>
<path d="M174.868 100.237C174.709 100.396 174.709 100.659 174.868 100.819L175.853 101.813L174.352 103.295C174.277 103.37 174.23 103.473 174.23 103.586C174.23 103.698 174.268 103.802 174.352 103.877C174.427 103.952 174.531 103.999 174.643 103.999C174.756 103.999 174.859 103.952 174.934 103.877L176.435 102.394L177.42 103.389C177.495 103.464 177.598 103.511 177.711 103.511C177.823 103.511 177.927 103.464 178.002 103.389C178.161 103.229 178.161 102.967 178.002 102.807L177.017 101.813L179.249 99.599L179.465 101.006C179.493 101.212 179.671 101.353 179.868 101.353C179.887 101.353 179.915 101.353 179.934 101.344C180.047 101.325 180.14 101.269 180.206 101.175C180.272 101.081 180.3 100.978 180.281 100.865L179.943 98.6515V98.6328V98.6234C179.943 98.6046 179.934 98.5953 179.934 98.5765C179.934 98.5671 179.925 98.5577 179.925 98.5484C179.915 98.5296 179.915 98.5202 179.906 98.5015L179.896 98.4827C179.878 98.4639 179.868 98.4452 179.85 98.4264C179.831 98.4076 179.812 98.3889 179.793 98.3795C179.784 98.3795 179.784 98.3701 179.775 98.3701C179.756 98.3607 179.746 98.3514 179.737 98.3514C179.728 98.3514 179.718 98.342 179.709 98.342C179.69 98.3326 179.681 98.3326 179.662 98.3232H179.653L177.42 97.9574C177.307 97.9386 177.204 97.9668 177.11 98.0324C177.017 98.0981 176.96 98.1919 176.942 98.3045C176.923 98.417 176.951 98.5202 177.017 98.614C177.082 98.7078 177.176 98.7641 177.289 98.7829L178.696 99.008L176.463 101.222L175.478 100.228C175.291 100.077 175.028 100.068 174.868 100.237Z" fill="#066FDE"/>
<path d="M138.415 30.1531C138.415 30.3501 138.415 30.519 138.415 30.669V30.8379C138.415 30.9505 138.452 31.0537 138.537 31.1287C138.612 31.2038 138.715 31.2507 138.827 31.2507C138.94 31.2507 139.043 31.2038 139.118 31.1287C139.193 31.0537 139.24 30.9505 139.24 30.8379V30.6503C139.24 30.5002 139.24 30.3313 139.24 30.1531C139.278 27.4983 139.7 26.5227 140.056 26.1663C140.16 26.0631 140.272 25.9974 140.394 25.9787C140.554 26.1288 141.041 26.7385 141.154 28.9055C141.191 29.6653 141.295 30.3032 141.463 30.8098C141.454 30.8754 141.435 30.9505 141.426 31.0161C141.276 31.8698 141.21 32.2638 140.094 32.0762C139.869 32.0386 139.653 32.1887 139.615 32.4139C139.578 32.639 139.728 32.8548 139.953 32.8923C140.16 32.9298 140.347 32.9392 140.516 32.9486H140.525C141.52 32.9486 141.904 32.3763 142.073 31.8885C142.148 31.9636 142.233 32.0293 142.317 32.0762C142.739 32.3388 143.255 32.3576 143.818 32.1231C144.54 31.8229 144.756 30.8285 144.493 30.0874C144.287 29.4965 143.677 28.9148 142.645 29.2056C142.402 29.2713 142.205 29.3839 142.036 29.534C142.008 29.3182 141.989 29.0931 141.979 28.8586C141.811 25.7441 140.891 25.2376 140.61 25.1532C140.572 25.1438 140.525 25.1344 140.488 25.1344C140.094 25.1344 139.756 25.2845 139.465 25.5659C139.203 25.8286 138.996 26.1944 138.827 26.6822C138.668 26.1944 138.462 25.8192 138.208 25.5565C137.918 25.2657 137.57 25.1156 137.176 25.1156C136.951 25.1156 136.764 25.3032 136.764 25.5284C136.764 25.7535 136.951 25.9411 137.176 25.9411C137.345 25.9411 137.486 26.0068 137.617 26.1381C137.983 26.5227 138.396 27.5077 138.415 30.1531ZM143.715 30.3876C143.856 30.8004 143.715 31.2976 143.499 31.3914C143.199 31.5227 142.955 31.5227 142.758 31.4008C142.636 31.3257 142.467 31.1568 142.317 30.7722C142.42 30.3126 142.57 30.1156 142.871 30.0312C143.321 29.9092 143.593 30.0218 143.715 30.3876Z" fill="#066FDE"/>
<path d="M137.112 48.1079C137.215 48.136 137.328 48.1267 137.431 48.0704L138.829 47.273L139.176 47.9015L139.204 47.9391C139.213 47.9484 139.223 47.9672 139.232 47.9766L139.242 47.9953C139.26 48.0141 139.279 48.0329 139.298 48.0422L139.307 48.0516C139.326 48.061 139.335 48.0704 139.354 48.0798L139.373 48.0891C139.392 48.0985 139.401 48.1079 139.42 48.1079L139.439 48.1173C139.457 48.1267 139.485 48.1267 139.504 48.1267C139.514 48.1267 139.523 48.1267 139.523 48.1267C139.532 48.1267 139.542 48.1267 139.551 48.1267H139.589C139.607 48.1267 139.617 48.1267 139.636 48.1173C139.645 48.1173 139.654 48.1173 139.664 48.1079C139.682 48.0985 139.701 48.0985 139.72 48.0891L141.155 47.273L141.493 47.9015L141.521 47.9484C141.53 47.9578 141.54 47.9766 141.549 47.986L141.559 48.0047C141.577 48.0235 141.596 48.0422 141.615 48.0516L141.624 48.061C141.643 48.0704 141.652 48.0798 141.671 48.0891L141.69 48.0985C141.709 48.1079 141.727 48.1173 141.737 48.1173L141.756 48.1267C141.774 48.136 141.803 48.136 141.821 48.136C141.831 48.136 141.831 48.136 141.84 48.136C141.849 48.136 141.859 48.136 141.868 48.136H141.906C141.924 48.136 141.934 48.136 141.953 48.1267C141.962 48.1267 141.971 48.1267 141.981 48.1173C142 48.1079 142.018 48.1079 142.037 48.0985L143.472 47.2824L143.819 47.9203C143.894 48.0516 144.026 48.136 144.185 48.136C144.251 48.136 144.326 48.1173 144.382 48.0891C144.476 48.0329 144.551 47.9484 144.579 47.8452C144.607 47.7421 144.598 47.6295 144.542 47.5263L143.988 46.5132C143.932 46.4194 143.848 46.3443 143.735 46.3162C143.632 46.288 143.519 46.2974 143.416 46.3537L142.018 47.1511L141.671 46.5132C141.615 46.4194 141.53 46.3443 141.418 46.3162C141.315 46.288 141.193 46.2974 141.099 46.3537L139.701 47.1511L139.354 46.5132C139.298 46.4194 139.213 46.3443 139.101 46.3162C138.998 46.288 138.876 46.2974 138.782 46.3537L137.009 47.3574C136.812 47.47 136.737 47.7233 136.849 47.9203C136.915 48.0047 137 48.0798 137.112 48.1079Z" fill="#066FDE"/>
<path d="M137.102 49.8058C137.205 49.834 137.318 49.8246 137.421 49.7683L138.819 48.9709L139.157 49.5994L139.185 49.6464C139.194 49.6557 139.204 49.6745 139.213 49.6839L139.222 49.7026C139.241 49.7214 139.26 49.7402 139.279 49.7495L139.288 49.7589C139.307 49.7683 139.316 49.7777 139.335 49.7871L139.354 49.7964C139.372 49.8058 139.391 49.8152 139.401 49.8152H139.419C139.438 49.8246 139.466 49.8246 139.485 49.8246C139.494 49.8246 139.504 49.8246 139.504 49.8246C139.513 49.8246 139.523 49.8246 139.532 49.8246H139.56C139.579 49.8246 139.598 49.8246 139.607 49.8152C139.616 49.8152 139.626 49.8152 139.635 49.8058C139.654 49.7964 139.673 49.7964 139.691 49.7871L141.127 48.9709L141.474 49.5994L141.502 49.637C141.511 49.6463 141.521 49.6651 141.53 49.6745L141.539 49.6933C141.558 49.712 141.577 49.7308 141.596 49.7402L141.614 49.7495C141.633 49.7589 141.643 49.7683 141.661 49.7777L141.68 49.7871C141.699 49.7964 141.718 49.8058 141.736 49.8058H141.746C141.765 49.8152 141.793 49.8152 141.811 49.8152C141.821 49.8152 141.83 49.8152 141.83 49.8152C141.84 49.8152 141.849 49.8152 141.858 49.8152H141.886C141.905 49.8152 141.924 49.8152 141.933 49.8058C141.943 49.8058 141.952 49.8058 141.962 49.7964C141.98 49.7871 142.008 49.7871 142.018 49.7777L143.453 48.9709L143.8 49.6088C143.875 49.7402 144.007 49.8246 144.166 49.8246C144.232 49.8246 144.307 49.8058 144.363 49.7777C144.457 49.7214 144.532 49.637 144.56 49.5338C144.588 49.4306 144.579 49.318 144.522 49.2148L143.969 48.2017C143.913 48.1079 143.828 48.0329 143.716 48.0047C143.613 47.9766 143.491 47.986 143.397 48.0422L141.999 48.8396L141.652 48.2017C141.596 48.1079 141.511 48.0329 141.399 48.0047C141.295 47.9766 141.174 47.986 141.08 48.0422L139.682 48.8396L139.335 48.2017C139.279 48.1079 139.194 48.0329 139.082 48.0047C138.978 47.9766 138.856 47.986 138.763 48.0422L136.99 49.046C136.896 49.1023 136.821 49.1867 136.793 49.2993C136.765 49.4025 136.774 49.515 136.83 49.6182C136.905 49.7026 136.999 49.7777 137.102 49.8058Z" fill="#066FDE"/>
<path d="M143.275 76.0157C143.341 77.0945 143.66 78.0701 144.176 78.7174C144.251 78.8206 144.373 78.8769 144.495 78.8769C144.589 78.8769 144.682 78.8487 144.748 78.7831C144.926 78.6423 144.954 78.3797 144.814 78.2014C144.42 77.7043 144.157 76.8975 144.091 76.0157H144.42C144.645 76.0157 144.833 75.8281 144.833 75.603C144.833 75.3778 144.645 75.1902 144.42 75.1902H144.091C144.157 74.3084 144.429 73.5111 144.833 73.0139C144.973 72.8356 144.945 72.573 144.767 72.4323C144.589 72.2916 144.326 72.3197 144.185 72.4979C143.669 73.1452 143.332 74.1114 143.257 75.1902H142.234C142.168 74.1114 141.849 73.1358 141.334 72.4886C141.268 72.4041 141.165 72.3478 141.052 72.3385C140.94 72.3291 140.836 72.3572 140.752 72.4229C140.667 72.4886 140.611 72.5917 140.602 72.7043C140.592 72.8169 140.621 72.9201 140.686 73.0139C141.08 73.5111 141.343 74.3178 141.409 75.1996H141.108C140.874 75.1996 140.696 75.3872 140.696 75.6124C140.696 75.7249 140.733 75.8281 140.818 75.9032C140.893 75.9782 140.996 76.0251 141.108 76.0251H141.409C141.343 76.9069 141.071 77.7043 140.667 78.2014C140.527 78.3797 140.555 78.6423 140.733 78.7831C140.808 78.8393 140.902 78.8769 140.996 78.8769C141.118 78.8769 141.24 78.8206 141.324 78.7268C141.84 78.0795 142.178 77.1133 142.253 76.0345L143.275 76.0157Z" fill="#066FDE"/>
<path d="M76.8701 38.1328H76.5679C76.3865 38.1328 76.2354 38.269 76.2354 38.4507C76.0842 40.5847 73.8474 42.7642 71.7163 42.961C71.5501 42.9761 71.4141 43.1275 71.4141 43.2939V43.6118C71.4141 43.7934 71.5501 43.9296 71.7314 43.9448C73.8474 44.0961 76.0087 46.2907 76.2354 48.4248C76.2505 48.6216 76.4167 48.7729 76.6283 48.7729H76.8399C77.0515 48.7729 77.2178 48.6216 77.2329 48.4097C77.4142 46.0183 79.3337 44.0507 81.7217 43.9296C81.9182 43.9145 82.0542 43.7631 82.0542 43.5664V43.2939C82.0542 43.0972 81.903 42.9458 81.7217 42.9307C79.3186 42.8096 77.384 40.8269 77.2329 38.4052C77.2027 38.269 77.0515 38.1328 76.8701 38.1328Z" fill="#ACD1FF"/>
<path d="M260.976 129.607H260.673C260.492 129.607 260.341 129.743 260.341 129.924C260.19 132.058 257.953 134.238 255.822 134.435C255.656 134.45 255.52 134.601 255.52 134.768V135.085C255.52 135.267 255.656 135.403 255.837 135.418C257.953 135.57 260.114 137.764 260.341 139.899C260.356 140.095 260.522 140.247 260.734 140.247H260.945C261.157 140.247 261.323 140.095 261.338 139.883C261.52 137.492 263.439 135.524 265.827 135.403C266.024 135.388 266.16 135.237 266.16 135.04V134.768C266.16 134.571 266.009 134.42 265.827 134.404C263.424 134.283 261.489 132.301 261.338 129.879C261.308 129.743 261.157 129.607 260.976 129.607Z" fill="#ACD1FF"/>
<path d="M30.5537 84.4486H30.2515C30.0701 84.4486 29.919 84.57 29.919 84.7319C29.7678 86.6337 27.531 88.576 25.3999 88.7514C25.2337 88.7648 25.0977 88.8997 25.0977 89.0481V89.3313C25.0977 89.4932 25.2337 89.6146 25.415 89.6281C27.531 89.763 29.6922 91.7188 29.919 93.6206C29.9341 93.7959 30.1003 93.9308 30.3119 93.9308H30.5235C30.7351 93.9308 30.9014 93.7959 30.9165 93.6071C31.0978 91.476 33.0173 89.7225 35.4053 89.6146C35.6018 89.6011 35.7378 89.4662 35.7378 89.2909V89.0481C35.7378 88.8727 35.5866 88.7379 35.4053 88.7244C33.0022 88.6165 31.0676 86.8495 30.9165 84.6914C30.8862 84.57 30.7351 84.4486 30.5537 84.4486Z" fill="#ACD1FF"/>
<path d="M86.1467 62.0769H85.92C85.784 62.0769 85.6707 62.1791 85.6707 62.3153C85.5573 63.9159 83.8797 65.5505 82.2814 65.6981C82.1567 65.7094 82.0547 65.8229 82.0547 65.9478V66.1862C82.0547 66.3224 82.1567 66.4245 82.2927 66.4359C83.8797 66.5494 85.5006 68.1954 85.6707 69.7959C85.682 69.9435 85.8067 70.057 85.9654 70.057H86.1241C86.2828 70.057 86.4075 69.9435 86.4188 69.7846C86.5548 67.9911 87.9944 66.5154 89.7854 66.4245C89.9328 66.4132 90.0348 66.2997 90.0348 66.1521V65.9478C90.0348 65.8002 89.9214 65.6867 89.7854 65.6754C87.9831 65.5845 86.5322 64.0975 86.4188 62.2813C86.3961 62.1791 86.2828 62.0769 86.1467 62.0769Z" fill="#ACD1FF"/>
<path d="M5.09401 108.393H4.86731C4.73128 108.393 4.61793 108.496 4.61793 108.632C4.50457 110.232 2.82695 111.867 1.22866 112.015C1.10397 112.026 1.00195 112.139 1.00195 112.264V112.503C1.00195 112.639 1.10397 112.741 1.23999 112.752C2.82694 112.866 4.4479 114.512 4.61793 116.112C4.62926 116.26 4.75396 116.374 4.91265 116.374H5.07134C5.23004 116.374 5.35473 116.26 5.36606 116.101C5.50209 114.308 6.94168 112.832 8.73267 112.741C8.88003 112.73 8.98204 112.616 8.98204 112.469V112.264C8.98204 112.117 8.86869 112.003 8.73267 111.992C6.93035 111.901 5.47942 110.414 5.36606 108.598C5.34339 108.496 5.23004 108.393 5.09401 108.393Z" fill="#ACD1FF"/>
<path d="M50.6272 132.956H50.4005C50.2645 132.956 50.1511 133.058 50.1511 133.194C50.0378 134.795 48.3601 136.429 46.7619 136.577C46.6372 136.588 46.5352 136.702 46.5352 136.827V137.065C46.5352 137.201 46.6372 137.303 46.7732 137.315C48.3601 137.428 49.9811 139.074 50.1511 140.675C50.1625 140.822 50.2872 140.936 50.4459 140.936H50.6045C50.7632 140.936 50.8879 140.822 50.8993 140.663C51.0353 138.87 52.4749 137.394 54.2659 137.303C54.4132 137.292 54.5152 137.179 54.5152 137.031V136.827C54.5152 136.679 54.4019 136.566 54.2659 136.554C52.4635 136.463 51.0126 134.976 50.8993 133.16C50.8766 133.058 50.7632 132.956 50.6272 132.956Z" fill="#ACD1FF"/>
<path d="M78.6717 154.112H78.2938C78.0671 154.112 77.8782 154.283 77.8782 154.51C77.6893 157.177 74.8932 159.902 72.2294 160.147C72.0216 160.166 71.8516 160.356 71.8516 160.564V160.961C71.8516 161.188 72.0216 161.358 72.2483 161.377C74.8932 161.566 77.5948 164.31 77.8782 166.977C77.8971 167.223 78.1049 167.412 78.3694 167.412H78.6339C78.8984 167.412 79.1062 167.223 79.1251 166.958C79.3518 163.969 81.7511 161.51 84.7361 161.358C84.9817 161.339 85.1517 161.15 85.1517 160.904V160.564C85.1517 160.318 84.9628 160.129 84.7361 160.11C81.7322 159.958 79.314 157.48 79.1251 154.453C79.0873 154.283 78.8984 154.112 78.6717 154.112Z" fill="#ACD1FF"/>
<path d="M205.916 147.196H205.538C205.311 147.196 205.122 147.366 205.122 147.593C204.933 150.261 202.137 152.985 199.474 153.231C199.266 153.25 199.096 153.439 199.096 153.647V154.044C199.096 154.272 199.266 154.442 199.492 154.461C202.137 154.65 204.839 157.393 205.122 160.061C205.141 160.307 205.349 160.496 205.614 160.496H205.878C206.143 160.496 206.35 160.307 206.369 160.042C206.596 157.053 208.995 154.593 211.98 154.442C212.226 154.423 212.396 154.234 212.396 153.988V153.647C212.396 153.401 212.207 153.212 211.98 153.193C208.976 153.042 206.558 150.563 206.369 147.536C206.331 147.366 206.143 147.196 205.916 147.196Z" fill="#ACD1FF"/>
<path d="M197.935 27.4958H197.557C197.331 27.4958 197.142 27.6661 197.142 27.8932C196.953 30.5607 194.157 33.2851 191.493 33.531C191.285 33.55 191.115 33.7392 191.115 33.9473V34.3446C191.115 34.5716 191.285 34.7419 191.512 34.7608C194.157 34.95 196.858 37.6933 197.142 40.3609C197.161 40.6068 197.369 40.796 197.633 40.796H197.898C198.162 40.796 198.37 40.6068 198.389 40.3419C198.615 37.3527 201.015 34.8932 204 34.7419C204.245 34.723 204.415 34.5338 204.415 34.2878V33.9473C204.415 33.7013 204.226 33.5121 204 33.4932C200.996 33.3419 198.578 30.8635 198.389 27.8364C198.351 27.6661 198.162 27.4958 197.935 27.4958Z" fill="#ACD1FF"/>
<path d="M241.935 85.3917H241.557C241.331 85.3917 241.142 85.5619 241.142 85.789C240.953 88.4566 238.157 91.1809 235.493 91.4269C235.285 91.4458 235.115 91.635 235.115 91.8431V92.2404C235.115 92.4674 235.285 92.6377 235.512 92.6566C238.157 92.8458 240.858 95.5891 241.142 98.2567C241.161 98.5026 241.369 98.6918 241.633 98.6918H241.898C242.162 98.6918 242.37 98.5026 242.389 98.2377C242.615 95.2485 245.015 92.789 248 92.6377C248.245 92.6188 248.415 92.4296 248.415 92.1836V91.8431C248.415 91.5971 248.226 91.4079 248 91.389C244.996 91.2377 242.578 88.7593 242.389 85.7322C242.351 85.5619 242.162 85.3917 241.935 85.3917Z" fill="#ACD1FF"/>
<path d="M208.508 67.3958H208.281C208.145 67.3958 208.032 67.498 208.032 67.6342C207.919 69.2348 206.241 70.8694 204.643 71.0169C204.518 71.0283 204.416 71.1418 204.416 71.2667V71.505C204.416 71.6413 204.518 71.7434 204.654 71.7548C206.241 71.8683 207.862 73.5143 208.032 75.1148C208.043 75.2624 208.168 75.3759 208.327 75.3759H208.485C208.644 75.3759 208.769 75.2624 208.78 75.1035C208.916 73.3099 210.356 71.8342 212.147 71.7434C212.294 71.7321 212.396 71.6186 212.396 71.471V71.2667C212.396 71.1191 212.283 71.0056 212.147 70.9942C210.344 70.9034 208.893 69.4164 208.78 67.6001C208.757 67.498 208.644 67.3958 208.508 67.3958Z" fill="#ACD1FF"/>
<path d="M283.11 113.713H282.883C282.747 113.713 282.634 113.8 282.634 113.916C282.52 115.285 280.843 116.682 279.244 116.808C279.12 116.818 279.018 116.915 279.018 117.022V117.226C279.018 117.342 279.12 117.429 279.256 117.439C280.843 117.536 282.464 118.943 282.634 120.312C282.645 120.438 282.77 120.535 282.928 120.535H283.087C283.246 120.535 283.37 120.438 283.382 120.302C283.518 118.769 284.957 117.507 286.748 117.429C286.896 117.42 286.998 117.323 286.998 117.196V117.022C286.998 116.896 286.884 116.799 286.748 116.789C284.946 116.711 283.495 115.44 283.382 113.887C283.359 113.8 283.246 113.713 283.11 113.713Z" fill="#ACD1FF"/>
<path d="M197.867 80.6981H197.641C197.505 80.6981 197.391 80.8002 197.391 80.9364C197.278 82.537 195.6 84.1716 194.002 84.3192C193.877 84.3305 193.775 84.444 193.775 84.5689V84.8073C193.775 84.9435 193.877 85.0457 194.013 85.057C195.6 85.1705 197.221 86.8165 197.391 88.4171C197.403 88.5646 197.527 88.6781 197.686 88.6781H197.845C198.003 88.6781 198.128 88.5646 198.14 88.4057C198.276 86.6122 199.715 85.1365 201.506 85.0457C201.653 85.0343 201.755 84.9208 201.755 84.7732V84.5689C201.755 84.4213 201.642 84.3078 201.506 84.2965C199.704 84.2057 198.253 82.7186 198.14 80.9024C198.117 80.8002 198.003 80.6981 197.867 80.6981Z" fill="#ACD1FF"/>
<defs>
<radialGradient id="paint0_radial_1_111" cx="0" cy="0" r="1" gradientUnits="userSpaceOnUse" gradientTransform="translate(143.188 99.2898) scale(98.404 98.404)">
<stop offset="2.50967e-07" stop-color="white" stop-opacity="0.3"/>
<stop offset="0.9617" stop-color="white" stop-opacity="0"/>
</radialGradient>
</defs>
</svg>
